<?xml version="1.0" standalone="no"?>
<!DOCTYPE svg PUBLIC "-//W3C//DTD SVG 20010904//EN"
 "http://www.w3.org/TR/2001/REC-SVG-20010904/DTD/svg10.dtd">
<svg version="1.0" xmlns="http://www.w3.org/2000/svg"
 width="1345.000000pt" height="718.000000pt" viewBox="0 0 1345.000000 718.000000"
 preserveAspectRatio="xMidYMid meet">

<g transform="translate(0.000000,718.000000) scale(0.100000,-0.100000)"
fill="#000000" stroke="none">
<path d="M0 5815 l0 -1365 1075 0 1075 0 0 214 c0 118 5 259 10 315 28 266
122 454 258 512 26 12 97 32 157 46 103 24 121 25 285 19 360 -13 381 -16 414
-48 l29 -29 -7 -157 c-4 -86 -9 -177 -12 -202 -3 -25 -7 -65 -8 -90 -2 -25 -8
-65 -15 -89 -7 -25 -11 -55 -8 -67 5 -27 -9 -138 -33 -259 -10 -47 -15 -53
-64 -82 -29 -18 -59 -40 -66 -48 -8 -9 14 0 49 20 105 62 143 75 238 81 48 3
94 7 101 9 6 3 12 0 12 -5 0 -5 6 -7 13 -4 7 2 62 0 122 -6 61 -6 139 -13 175
-15 361 -19 545 -40 579 -68 9 -8 70 -13 185 -14 172 -1 460 -9 701 -18 114
-5 716 -10 770 -7 11 0 74 0 140 -2 101 -3 326 8 273 12 -9 1 -22 10 -28 20
-9 14 -11 14 -7 1 5 -14 2 -15 -18 -5 -13 6 -21 14 -18 19 2 4 1 6 -4 5 -22
-6 -53 15 -53 35 0 18 -2 19 -10 7 -8 -13 -10 -12 -10 3 0 11 -5 17 -12 14 -7
-2 -12 -9 -11 -15 2 -6 -4 -9 -13 -5 -13 5 -13 7 -2 14 10 6 10 9 1 9 -16 0
-64 41 -58 50 2 4 -2 7 -9 7 -8 0 -12 -7 -9 -16 4 -13 2 -13 -10 2 -8 9 -20
17 -26 17 -19 0 -63 49 -55 62 4 7 3 8 -5 4 -6 -4 -19 -2 -27 5 -12 10 -13 9
-8 -5 5 -14 3 -15 -20 -6 -14 5 -31 7 -38 5 -7 -3 -26 6 -43 21 -21 17 -23 22
-8 15 28 -14 44 -14 21 0 -10 5 -18 17 -18 25 0 9 -5 12 -12 8 -8 -5 -9 -2 -5
9 3 9 2 19 -4 22 -5 4 -7 10 -5 14 3 4 1 13 -5 21 -7 12 -9 12 -9 1 0 -8 -6
-11 -17 -7 -10 3 -6 -3 10 -15 15 -11 25 -25 21 -30 -3 -5 -12 -2 -21 6 -11
11 -19 13 -28 5 -9 -8 -11 -2 -8 25 2 21 -1 35 -7 35 -6 0 -8 -4 -5 -10 3 -5
1 -10 -4 -10 -6 0 -11 5 -11 11 0 6 -9 8 -21 4 -18 -6 -19 -5 -7 14 9 14 14
17 20 8 5 -8 8 -7 8 5 0 9 -8 22 -17 27 -14 8 -15 10 -3 11 12 0 12 2 2 8 -10
7 -8 15 8 35 22 27 15 37 -9 15 -11 -11 -12 -10 -6 0 4 8 2 13 -6 11 -32 -4
-49 2 -60 22 -6 12 -7 19 -2 16 4 -3 9 5 9 18 1 18 -2 22 -14 18 -11 -5 -14
-2 -9 10 4 11 2 14 -9 10 -7 -3 -14 0 -14 5 0 6 8 13 18 15 10 3 5 5 -12 6
-20 1 -27 5 -22 16 3 9 -3 19 -15 26 -11 6 -18 13 -15 16 3 4 1 12 -5 19 -8 9
-6 11 9 7 12 -3 19 1 19 10 0 8 -5 13 -11 11 -6 -2 -17 9 -23 26 -10 28 -14
30 -32 20 -12 -6 -21 -8 -21 -5 0 17 82 37 150 37 96 -1 189 -30 263 -81 31
-22 80 -47 109 -55 138 -42 232 -64 247 -59 14 4 14 3 1 -6 -11 -8 -12 -11 -2
-11 7 0 47 -14 88 -31 57 -24 74 -35 69 -47 -4 -12 -3 -12 9 -3 11 9 14 7 14
-14 0 -16 -6 -25 -16 -25 -8 0 -12 3 -9 6 3 4 -5 16 -19 26 -14 11 -28 18 -31
14 -4 -3 0 -6 7 -6 10 0 11 -3 3 -11 -12 -12 -63 -2 -63 13 0 5 -4 6 -10 3 -5
-3 -47 7 -92 23 -122 43 -128 45 -73 17 28 -14 74 -33 103 -42 28 -9 52 -20
52 -25 0 -4 6 -5 14 -2 7 3 29 -2 47 -11 19 -8 26 -13 17 -10 -33 8 -18 -11
25 -35 23 -13 89 -54 147 -91 108 -70 341 -187 418 -210 34 -10 42 -16 39 -31
-3 -10 -1 -18 4 -18 5 0 9 7 9 15 0 8 5 15 10 15 6 0 10 -5 10 -11 0 -6 7 -8
16 -5 18 7 47 -11 39 -24 -7 -12 76 -56 120 -64 23 -5 42 -3 51 5 11 9 17 9
29 -1 10 -9 15 -9 15 -1 0 15 22 14 56 -4 26 -13 29 -13 36 3 5 14 7 13 7 -5
1 -19 7 -23 32 -23 24 0 30 4 27 18 -2 9 -10 16 -16 14 -7 -1 -12 4 -12 11 0
7 -20 23 -45 37 -25 14 -45 28 -45 32 0 7 61 2 95 -9 11 -3 31 -13 45 -23 14
-9 42 -21 63 -26 l38 -9 -30 -18 c-27 -16 -30 -16 -24 -2 5 13 0 16 -23 13
-18 -2 -30 -10 -32 -20 -3 -16 16 -18 230 -20 128 -2 253 -1 278 2 l45 5 -25
18 c-26 18 -116 25 -105 8 3 -6 -4 -8 -15 -6 -11 2 -20 0 -20 -5 0 -5 -7 -7
-16 -3 -8 3 -13 12 -10 19 7 18 -50 58 -72 49 -13 -5 -14 -3 -5 6 6 6 31 14
56 16 35 4 58 -1 104 -21 48 -23 66 -26 103 -20 58 9 226 6 410 -6 80 -6 183
-13 230 -16 47 -3 141 -12 210 -20 201 -23 260 -28 261 -18 0 5 2 17 4 27 2 9
-1 17 -6 17 -6 0 -7 4 -4 10 3 6 -1 7 -10 4 -11 -5 -16 -2 -15 7 5 31 -1 36
-44 34 -32 -2 -43 1 -42 11 1 7 5 16 8 20 4 3 4 12 1 20 -4 12 -8 12 -21 2
-13 -11 -14 -10 -4 9 17 31 15 38 -5 22 -16 -12 -16 -11 0 8 12 14 15 23 8 28
-15 9 -33 -4 -25 -18 4 -7 4 -9 -1 -5 -11 11 -47 -11 -39 -24 4 -7 2 -8 -5 -4
-9 6 -9 11 0 22 6 8 9 14 6 14 -3 0 -2 14 3 31 8 26 7 29 -6 18 -12 -10 -13
-9 -9 4 4 8 1 18 -6 23 -7 4 -10 3 -6 -2 3 -5 -3 -10 -13 -10 -18 0 -18 1 1
19 10 10 23 16 28 13 4 -3 16 3 25 13 13 14 14 21 5 27 -7 4 -10 3 -6 -3 4 -6
-1 -17 -10 -24 -15 -12 -16 -12 -10 3 3 10 1 20 -5 24 -6 4 -8 3 -4 -4 3 -6 2
-13 -4 -17 -9 -6 -14 8 -11 28 1 5 -3 6 -9 2 -5 -3 -22 1 -37 10 -16 9 -21 14
-13 12 21 -6 50 22 43 41 -5 12 -2 14 13 8 15 -6 16 -4 7 5 -6 6 -27 13 -45
14 -18 2 -38 3 -44 4 -6 0 -11 8 -11 16 0 12 3 12 15 2 13 -10 14 -9 2 10 -11
16 -17 19 -27 11 -9 -8 -13 -7 -13 2 0 10 -3 10 -15 0 -12 -10 -15 -10 -15 0
0 9 -4 9 -17 -1 -11 -10 -14 -10 -9 -1 4 6 2 12 -3 12 -6 0 -11 -4 -11 -10 0
-5 -5 -10 -11 -10 -8 0 -8 4 -1 13 6 6 10 15 9 19 -1 3 2 10 7 15 5 4 6 3 3
-4 -11 -18 16 -22 37 -4 11 9 16 10 12 3 -5 -8 -1 -11 16 -8 13 2 22 9 20 15
-3 15 20 9 35 -9 11 -13 12 -13 7 3 -7 18 11 24 21 7 5 -8 11 -8 19 -1 9 7 19
6 34 -5 12 -8 22 -14 23 -12 7 27 4 39 -9 50 -10 8 -13 9 -9 1 15 -25 -14 -23
-40 4 -16 15 -31 27 -35 25 -5 -1 -8 3 -8 10 0 6 -12 1 -26 -13 -14 -13 -25
-19 -24 -14 5 22 -1 36 -12 29 -7 -4 -8 -3 -4 4 7 11 -6 17 -27 13 -5 -1 -6 3
-2 9 4 7 12 7 25 0 11 -6 21 -6 24 -1 4 5 1 11 -6 13 -6 2 -12 12 -14 22 -1
10 0 15 3 12 4 -3 15 2 26 11 11 10 17 13 14 7 -4 -7 0 -14 8 -17 10 -4 12 -1
8 10 -5 12 -2 15 9 11 9 -4 21 -1 28 5 10 9 11 9 6 -1 -5 -8 0 -11 16 -8 19 2
23 9 21 32 -2 19 0 24 6 16 4 -8 12 -14 17 -15 5 -1 9 -8 10 -15 1 -6 -2 -10
-6 -7 -5 3 -11 1 -14 -4 -3 -5 0 -11 8 -14 15 -6 50 25 41 36 -3 4 -2 5 2 2 4
-3 8 -11 9 -18 1 -7 3 -18 5 -26 2 -7 -4 -15 -13 -16 -10 -2 -18 1 -18 6 0 6
-5 7 -11 4 -6 -5 -4 -12 8 -22 10 -8 12 -12 6 -8 -7 3 -23 8 -35 10 -22 4 -22
3 -5 -10 11 -7 28 -12 40 -9 11 2 27 -2 35 -8 17 -15 44 -20 36 -7 -3 5 -9 7
-14 4 -5 -3 -14 3 -20 14 -6 11 -6 22 -1 25 5 3 12 -1 15 -10 4 -9 9 -14 13
-11 3 4 13 1 22 -6 14 -11 14 -10 2 5 -7 10 -17 16 -21 13 -4 -3 -11 2 -14 10
-8 22 -7 30 3 30 5 0 11 2 13 5 2 3 1 4 -1 3 -2 -1 -12 8 -22 20 -10 12 -18
18 -19 13 0 -4 -8 0 -17 11 -10 10 -14 13 -9 6 15 -22 0 -26 -28 -8 -14 10
-23 21 -20 26 3 5 9 7 14 4 17 -11 19 13 2 26 -9 7 -14 9 -10 5 11 -13 -12
-37 -26 -29 -6 4 -5 0 2 -9 9 -11 10 -18 2 -23 -6 -3 -8 -10 -6 -14 3 -4 -1
-8 -9 -8 -10 0 -12 4 -5 12 5 6 5 17 0 25 -5 8 -5 19 0 25 6 8 5 19 -4 31 -13
17 -14 16 -12 -17 2 -20 6 -40 9 -46 4 -7 -4 -10 -23 -9 -27 1 -28 2 -13 19
19 20 25 57 10 57 -16 0 -1 11 20 14 13 2 18 11 18 32 0 19 6 30 18 32 9 2 17
-1 17 -7 0 -6 -8 -8 -17 -4 -10 3 -15 3 -12 -1 10 -11 48 -15 54 -6 3 5 1 11
-5 15 -6 4 -8 11 -4 16 3 5 11 6 17 2 27 -17 40 -12 21 7 -20 21 -70 17 -57
-4 4 -6 -1 -5 -10 2 -9 8 -21 10 -28 6 -7 -4 -10 -2 -8 5 3 7 7 11 11 9 3 -2
15 5 26 15 13 12 29 17 44 13 13 -3 17 -3 10 0 -6 3 -9 10 -6 16 10 15 -39 -1
-52 -18 -6 -7 -14 -10 -18 -6 -4 3 -16 -4 -28 -18 -11 -14 -16 -19 -12 -11 5
11 3 13 -11 7 -15 -5 -16 -4 -5 9 7 9 15 13 18 10 3 -3 14 2 24 12 10 9 18 13
18 8 0 -4 7 -1 16 6 22 18 45 20 62 6 29 -24 42 -16 20 14 -15 19 -25 26 -33
19 -12 -10 -46 -7 -67 6 -7 5 -9 2 -5 -8 6 -16 -9 -32 -52 -56 l-23 -13 18 24
c11 14 22 21 25 15 3 -5 12 -2 19 7 10 12 10 15 0 15 -10 0 -10 3 0 15 7 9 15
13 18 10 3 -3 12 1 20 8 13 10 15 9 10 -5 -8 -19 12 -19 34 0 8 6 19 8 23 4 5
-4 5 -2 1 5 -3 6 -1 15 5 19 8 4 9 3 5 -4 -4 -7 -2 -12 4 -12 6 0 9 -4 5 -9
-10 -18 13 -21 26 -4 8 9 9 14 3 10 -19 -11 -24 20 -6 34 9 8 14 9 10 5 -5 -5
1 -15 12 -23 19 -13 29 -40 11 -29 -4 3 -16 -3 -25 -13 -16 -18 -15 -20 16
-42 l33 -24 -23 33 c-13 17 -21 33 -18 33 24 5 33 3 48 -9 10 -8 18 -11 18 -7
0 4 9 0 20 -10 11 -10 21 -15 21 -12 1 4 2 13 3 20 1 6 11 11 24 11 13 -1 20
1 17 5 -4 3 -10 6 -13 6 -9 1 -82 75 -73 75 3 0 -3 7 -13 15 -13 10 -23 11
-31 5 -8 -7 -12 -5 -12 4 0 8 8 13 18 11 16 -3 17 -1 7 15 -11 17 -14 18 -28
5 -15 -13 -17 -13 -17 -1 0 8 5 14 10 13 6 -1 13 9 16 22 7 25 31 42 31 21 0
-6 6 -8 13 -4 6 4 9 4 5 -1 -4 -4 0 -14 10 -21 13 -10 14 -15 5 -24 -9 -10
-15 -5 -28 20 -9 17 -19 29 -22 26 -3 -3 0 -13 8 -23 12 -15 12 -16 -1 -9 -8
4 -6 0 5 -9 11 -9 19 -21 17 -26 -1 -6 2 -8 8 -4 5 3 10 1 10 -4 0 -6 1 -14 1
-18 2 -9 39 -37 52 -39 4 -1 8 -2 10 -4 9 -7 36 -6 31 1 -3 5 -9 7 -14 4 -7
-4 -60 56 -60 69 0 9 24 2 32 -8 3 -5 15 -11 25 -12 17 -3 17 -2 0 11 -10 7
-18 17 -18 22 1 4 -5 8 -11 8 -7 0 -12 7 -12 16 1 9 -5 16 -12 16 -7 0 -10 -5
-7 -10 3 -6 1 -7 -6 -3 -14 9 -5 26 13 26 8 0 19 -7 26 -15 7 -9 15 -13 18
-10 3 2 11 -3 19 -13 8 -9 12 -11 8 -4 -3 6 0 12 7 13 7 0 2 5 -12 11 -14 6
-28 11 -31 10 -3 0 -6 5 -6 13 0 12 5 12 34 0 18 -8 33 -10 33 -5 0 13 -42 40
-52 34 -4 -3 -5 1 -2 9 3 8 0 18 -7 23 -7 4 -10 3 -5 -4 3 -6 -1 -9 -11 -7
-10 1 -24 -3 -32 -9 -12 -9 -12 -8 0 11 9 16 16 19 21 10 8 -13 10 -9 12 35 1
15 -2 24 -6 21 -5 -2 -6 -14 -2 -26 3 -12 3 -19 -1 -15 -5 4 -15 2 -23 -5 -13
-10 -15 -9 -9 6 5 12 3 16 -5 11 -8 -5 -9 -2 -5 9 3 9 1 19 -5 23 -6 4 -8 3
-5 -3 4 -6 0 -19 -8 -29 -13 -17 -14 -15 -9 21 4 28 3 36 -4 26 -6 -8 -8 -19
-6 -26 3 -6 -5 -20 -17 -31 l-23 -19 16 24 c21 29 14 51 -14 43 -16 -4 -19 -2
-13 8 5 9 4 11 -3 6 -7 -4 -12 -16 -12 -26 0 -10 -4 -21 -9 -24 -4 -3 -6 7 -4
22 4 26 4 26 -11 8 -16 -19 -16 -19 -16 3 0 19 -3 21 -14 12 -11 -10 -15 -8
-19 6 -3 15 -6 14 -15 -7 l-11 -25 0 24 c-1 19 -4 21 -15 12 -10 -9 -15 -8
-20 4 -8 21 -26 19 -27 -2 0 -11 -3 -13 -6 -5 -8 21 -20 13 -28 -20 -6 -26 -9
-29 -12 -13 -7 30 -23 43 -24 20 0 -11 -2 -31 -5 -44 -2 -14 1 -29 8 -34 9 -6
8 -7 -4 -3 -10 3 -22 -2 -27 -12 -14 -24 -13 -5 1 35 10 26 9 36 -1 45 -10 11
-12 10 -10 -2 4 -20 -10 -60 -21 -60 -5 0 -5 13 0 30 12 40 5 38 -20 -7 l-21
-38 7 35 c4 20 3 31 -2 27 -5 -5 -9 -12 -9 -15 -1 -11 -35 -72 -41 -72 -2 0 2
13 11 30 20 38 19 64 -2 81 -14 10 -16 10 -6 0 8 -10 6 -29 -13 -80 -13 -36
-24 -67 -24 -68 0 -2 -5 -3 -11 -3 -8 0 -8 4 0 14 11 13 27 56 36 98 2 10 0
20 -5 23 -5 3 -7 -3 -5 -13 2 -10 -6 -29 -16 -43 l-20 -24 7 29 c5 21 4 27 -5
22 -6 -4 -9 -11 -6 -16 3 -5 1 -11 -5 -15 -6 -3 -10 4 -11 17 l0 23 -9 -22
c-10 -25 -22 -31 -19 -10 4 31 -3 40 -13 17 l-11 -25 -5 25 c-6 41 -22 48 -23
10 0 -34 -1 -34 -11 -10 l-10 25 -14 -30 -13 -30 -2 30 c-1 21 -3 24 -6 10 -8
-32 -23 -42 -23 -15 0 27 -15 17 -23 -15 -3 -14 -5 -11 -6 10 -1 23 -3 27 -11
15 -9 -13 -10 -13 -10 0 -1 9 -6 5 -15 -10 l-14 -25 -1 25 c0 20 -2 22 -10 10
-8 -13 -10 -12 -10 3 0 10 -5 15 -10 12 -6 -4 -17 -1 -25 5 -12 10 -15 9 -15
-6 -1 -18 -1 -18 -14 -2 -12 17 -14 16 -24 -5 l-11 -22 -1 25 c-1 25 -1 25
-16 -5 -11 -22 -13 -24 -10 -7 5 27 -2 28 -21 5 -13 -16 -13 -15 -3 6 13 24 2
40 -27 41 -7 0 -13 4 -13 9 0 5 -15 8 -34 7 -28 -3 -33 0 -29 15 3 11 1 19 -5
19 -5 0 -54 -29 -108 -65 -54 -36 -104 -65 -111 -65 -7 0 -13 -5 -13 -11 0 -6
-7 -9 -15 -6 -8 4 -17 2 -20 -3 -4 -6 12 -10 38 -10 66 0 138 -25 184 -65 33
-28 42 -32 47 -19 3 8 10 12 16 9 7 -4 7 -12 0 -25 -7 -13 -4 -31 13 -67 18
-40 22 -65 22 -158 0 -155 -16 -185 -186 -354 -60 -60 -185 -169 -175 -153 12
19 -1 15 -77 -30 -39 -23 -77 -41 -84 -41 -7 0 -13 -4 -13 -8 0 -9 -86 -50
-200 -94 -47 -18 -109 -42 -138 -54 -29 -12 -51 -17 -47 -11 3 5 12 10 19 10
7 0 25 11 39 24 18 17 33 23 48 19 18 -5 21 -3 17 13 -4 14 0 20 13 20 10 0
15 -4 13 -8 -6 -10 10 -11 19 -1 4 3 2 12 -5 20 -9 11 -8 13 3 11 9 -2 14 5
14 19 1 24 15 45 15 22 0 -11 2 -11 10 1 5 8 10 10 10 4 0 -18 28 -24 34 -8 3
8 2 12 -3 9 -5 -3 -13 0 -17 6 -5 8 1 10 19 7 15 -3 24 -2 22 3 -3 4 -1 10 5
14 6 4 7 11 4 17 -4 6 3 5 16 -2 12 -7 20 -7 16 -2 -3 6 0 16 7 24 8 7 16 20
20 28 3 9 6 10 6 3 1 -7 6 -13 12 -13 6 0 9 9 6 19 -3 14 -1 18 10 14 7 -3 13
-2 12 3 -5 28 2 46 17 40 8 -3 12 -2 9 4 -3 6 0 10 8 10 8 0 20 7 27 15 7 8
16 12 21 9 5 -3 6 3 3 13 -5 17 -5 17 9 1 13 -16 15 -16 26 6 7 13 20 23 30
22 9 0 16 6 15 15 -1 9 8 21 18 28 12 7 17 8 14 2 -4 -7 -1 -8 8 -5 21 8 48
52 44 72 -3 16 9 31 64 88 11 12 18 27 14 32 -3 6 -1 14 5 18 8 5 9 3 4 -6 -5
-9 -4 -11 4 -6 9 6 9 11 1 21 -8 10 -7 14 2 17 10 4 8 9 -5 22 -12 13 -14 22
-7 36 13 24 -10 46 -29 27 -11 -10 -12 -7 -6 13 11 35 11 35 38 5 18 -22 26
-25 32 -15 5 8 4 11 -3 6 -13 -8 -35 28 -24 39 4 5 2 5 -5 1 -6 -3 -16 2 -22
11 -6 10 -11 13 -11 6 0 -6 -9 -11 -20 -10 -20 1 -20 2 2 19 15 12 17 16 6 12
-23 -8 -23 5 0 23 16 14 16 14 -1 9 -16 -5 -16 -3 -2 24 13 26 13 30 -1 45
-14 13 -14 18 -2 32 7 9 8 14 2 10 -6 -3 -20 2 -31 12 -44 41 -83 45 -165 16
-24 -8 -51 -15 -62 -15 -15 0 -17 -5 -11 -27 l6 -27 -18 23 -18 23 -65 -64
c-36 -35 -84 -87 -106 -114 -35 -41 -48 -50 -79 -52 -23 -2 -34 1 -30 8 6 10
-7 14 -33 11 -8 -1 -20 3 -28 10 -14 11 -19 2 -15 -24 1 -4 -16 1 -36 12 -37
19 -79 58 -121 115 -16 20 -22 24 -22 12 0 -10 -20 -25 -52 -39 l-53 -23 55
-26 c65 -30 132 -60 178 -78 37 -15 27 -30 -20 -30 -15 0 -30 -5 -33 -11 -4
-5 -12 -8 -18 -6 -7 2 -27 -2 -45 -10 -18 -7 -36 -12 -40 -9 -5 3 -14 1 -22
-4 -12 -7 -11 -9 5 -9 11 -1 40 -2 65 -5 25 -2 61 -4 80 -5 33 -2 34 -2 15
-16 -14 -11 -37 -14 -82 -11 -35 2 -63 0 -63 -5 0 -5 19 -9 43 -9 l42 -1 -29
-15 c-22 -12 -30 -13 -36 -4 -8 14 -50 -3 -50 -20 0 -6 -5 -10 -10 -10 -7 0
-7 6 0 20 9 16 8 20 -5 20 -9 0 -13 -5 -10 -11 4 -6 -3 -5 -14 3 -22 13 -22
13 4 16 45 6 27 20 -22 17 -103 -5 -127 -8 -110 -12 9 -2 15 -8 12 -13 -3 -5
-11 -7 -18 -5 -47 14 -68 15 -61 3 5 -10 4 -10 -6 -1 -9 8 -19 9 -32 2 -12 -6
-18 -6 -18 1 0 15 -24 8 -32 -10 -5 -12 -7 -12 -7 3 -1 21 3 21 -62 -1 -73
-25 -384 -26 -399 -2 -8 12 -10 12 -10 1 0 -8 -2 -12 -5 -9 -8 8 16 58 28 58
5 0 7 9 4 20 -6 23 16 74 26 63 4 -3 7 3 7 15 0 16 4 20 17 15 9 -4 14 -2 10
3 -8 14 51 47 74 41 10 -3 22 -1 25 4 3 5 -4 9 -14 9 -25 0 -34 33 -16 57 19
26 17 42 -8 64 l-23 20 52 -4 c29 -3 55 -2 58 2 4 3 12 6 18 6 5 0 11 11 12
24 1 13 9 29 18 36 21 15 23 47 3 39 -8 -3 -17 -1 -20 5 -4 6 -13 8 -20 5 -8
-3 -17 0 -21 5 -3 6 -11 8 -17 5 -10 -7 11 34 35 67 7 9 32 26 57 39 25 13 51
31 58 41 29 42 59 48 167 33 55 -7 103 -13 107 -14 4 0 8 -10 10 -22 2 -12 22
-35 46 -52 42 -31 102 -113 102 -141 0 -16 30 -35 57 -35 10 0 35 11 55 25
l36 25 -67 65 c-41 39 -76 65 -89 65 -23 0 -39 37 -28 65 3 8 3 22 0 30 -8 20
-34 19 -34 -1 0 -12 -7 -14 -32 -9 -18 4 -39 11 -48 16 -8 4 -24 10 -35 14
-34 11 4 26 59 23 32 -1 51 2 54 10 2 8 -12 12 -48 12 -64 0 -90 13 -90 45 0
24 3 25 58 26 l57 1 -48 17 c-27 9 -53 25 -59 34 -8 14 -13 16 -24 6 -14 -11
-98 -8 -111 4 -3 4 -3 14 1 23 6 15 20 16 116 12 98 -5 109 -4 101 10 -7 12
-23 15 -66 13 -54 -2 -56 -1 -53 20 2 17 12 25 36 30 76 15 38 21 -98 14 -226
-10 -237 -16 -281 -145 -22 -67 -29 -77 -99 -135 -41 -35 -88 -77 -104 -94
-49 -51 -83 -32 -51 28 14 28 14 33 0 55 -24 36 -34 190 -23 346 6 77 5 86 -3
45 -12 -61 -15 -64 -35 -39 -12 14 -11 11 1 -10 11 -18 14 -31 8 -33 -6 -2 -8
-15 -5 -28 3 -16 0 -25 -8 -25 -7 0 -10 -8 -7 -20 3 -11 0 -20 -5 -20 -7 0 -6
-5 1 -14 9 -10 8 -16 -4 -26 -8 -7 -15 -23 -15 -37 0 -13 -4 -21 -10 -18 -5 3
-7 0 -4 -8 3 -8 1 -18 -5 -22 -6 -3 -11 -12 -11 -18 0 -7 4 -6 11 3 9 12 10
12 5 -3 -3 -10 -6 -21 -6 -23 0 -3 -5 -2 -10 1 -14 9 -12 -8 3 -24 10 -11 9
-12 -2 -6 -11 6 -13 4 -8 -8 3 -9 1 -18 -6 -21 -9 -5 -9 -7 0 -12 9 -4 8 -12
-5 -32 -9 -14 -12 -23 -7 -20 6 4 10 -14 11 -48 0 -29 -2 -50 -5 -46 -10 13
-28 11 -28 -3 0 -8 4 -12 9 -9 4 3 8 -6 8 -20 0 -32 10 -32 61 -1 l40 26 -17
-26 c-27 -41 -16 -135 22 -182 27 -33 38 -41 84 -63 8 -4 29 -1 45 7 l30 16
-25 -28 c-39 -43 -120 -105 -137 -105 -13 0 -13 3 -3 15 7 8 16 12 21 9 5 -3
9 0 9 7 0 7 7 21 17 31 9 10 11 18 5 18 -6 0 -16 -9 -22 -20 -12 -22 -30 -27
-30 -8 0 6 8 20 18 32 15 18 13 17 -23 -4 l-40 -23 25 28 25 29 -33 -23 c-18
-12 -30 -26 -27 -31 3 -5 0 -12 -6 -16 -8 -4 -9 -3 -5 4 4 7 0 12 -10 12 -16
0 -15 2 2 23 19 22 19 22 -2 5 -26 -23 -36 -23 -51 1 -9 14 -20 18 -39 15 -18
-3 -31 1 -40 13 -7 10 -14 13 -14 7 0 -6 -7 -11 -15 -11 -11 0 -12 3 -3 14 9
11 8 13 -3 11 -8 -2 -13 3 -12 9 2 7 0 12 -5 12 -22 -4 -34 3 -28 16 6 17 -9
21 -19 5 -3 -5 -10 -10 -16 -10 -16 0 -10 26 13 55 l21 28 -21 -12 c-21 -11
-22 -10 -18 21 3 18 7 62 11 98 3 36 15 120 26 187 13 82 19 164 18 250 -1 70
2 158 6 196 5 47 4 67 -4 67 -6 0 -11 -5 -11 -12 0 -6 -3 -8 -7 -5 -3 4 -11 3
-17 -2 -6 -5 -30 -6 -53 -2 -27 5 -46 4 -53 -3 -8 -8 -13 -7 -18 1 -5 9 -12 2
-20 -20 -11 -31 -14 -32 -54 -30 -24 2 -53 3 -66 3 -16 0 -21 4 -16 13 4 6 -1
5 -12 -4 -29 -24 -48 -34 -40 -21 9 14 9 14 -32 3 -18 -6 -30 -6 -27 -1 3 4
-2 10 -10 14 -8 3 -17 1 -20 -4 -9 -14 -35 0 -35 19 -1 14 -3 14 -15 -3 -12
-16 -18 -17 -46 -7 -39 14 -42 14 -34 1 3 -5 -1 -10 -9 -10 -10 0 -13 -6 -10
-15 5 -11 -1 -15 -17 -15 -19 0 -21 2 -9 10 8 5 12 11 9 14 -3 3 -16 -6 -30
-21 -18 -20 -20 -25 -6 -20 11 4 17 1 17 -8 0 -7 8 -16 18 -18 13 -4 11 -5 -5
-6 -13 0 -23 -5 -23 -10 0 -4 12 -8 27 -7 21 1 28 -4 29 -19 2 -42 15 -65 37
-66 21 0 21 -1 2 -8 -18 -7 -17 -9 13 -25 17 -9 32 -19 32 -22 0 -3 -4 -2 -10
1 -5 3 -7 0 -4 -8 3 -9 13 -13 25 -10 21 6 26 -16 8 -34 -7 -7 -5 -16 8 -28
12 -12 14 -20 6 -22 -11 -4 -2 -20 35 -59 11 -12 11 -14 -1 -14 -9 0 -13 -11
-12 -36 1 -39 -18 -74 -41 -74 -8 0 -14 -5 -14 -11 0 -7 10 -9 28 -5 l27 6
-29 -16 c-24 -13 -30 -14 -37 -2 -7 10 -9 10 -9 -3 0 -9 -11 -21 -25 -27 -14
-6 -25 -8 -25 -3 0 5 10 11 22 14 12 4 20 9 17 12 -7 7 -69 -15 -69 -24 0 -10
-61 -8 -77 2 -7 5 -9 1 -6 -12 3 -11 18 -24 34 -30 16 -6 42 -16 59 -22 16 -6
27 -15 24 -20 -3 -5 -2 -9 3 -10 4 0 16 -2 26 -4 17 -3 17 -2 3 20 -16 24 -15
24 6 16 15 -5 23 -17 22 -30 0 -11 4 -21 9 -21 5 0 7 -7 3 -15 -3 -8 1 -20 8
-27 7 -7 12 -29 12 -49 l-1 -36 -38 43 c-43 49 -97 91 -97 75 0 -5 35 -47 78
-93 57 -63 77 -91 77 -112 l0 -27 -24 28 c-13 15 -20 22 -17 16 5 -8 1 -13 -9
-13 -12 0 -9 -7 12 -29 15 -16 31 -27 35 -24 4 2 19 -16 34 -39 15 -24 33 -47
39 -53 7 -5 22 -27 34 -48 l23 -37 -30 -28 c-41 -39 -73 -105 -79 -169 -3 -29
-9 -55 -13 -58 -3 -2 -40 -5 -81 -6 -64 -2 -123 -11 -229 -35 -14 -3 -45 -9
-70 -14 -82 -15 -142 -31 -162 -41 -10 -5 -35 -12 -55 -15 -20 -2 -45 -13 -56
-24 -10 -11 -22 -18 -26 -16 -5 3 -13 -6 -19 -19 -7 -15 -20 -25 -32 -25 -13
0 -18 4 -15 11 4 6 13 8 21 5 26 -10 14 2 -17 18 -16 8 -37 12 -45 9 -9 -3
-14 2 -14 16 0 12 -5 21 -11 21 -5 0 -8 -4 -5 -8 9 -15 -10 -33 -28 -26 -14 5
-15 9 -4 15 10 6 10 11 0 21 -9 9 -12 9 -12 0 0 -7 -5 -12 -12 -12 -8 0 -7 6
4 16 14 14 14 20 2 42 -7 14 -10 30 -7 36 4 6 -4 2 -16 -9 -19 -16 -24 -17
-31 -5 -6 9 -6 16 0 18 6 2 10 8 10 14 0 6 -15 8 -37 4 -42 -6 -48 -10 61 40
28 13 53 21 58 18 4 -3 8 2 8 11 0 13 6 16 25 11 19 -5 23 -3 19 8 -7 18 -63
18 -84 1 -8 -7 -34 -12 -58 -12 -32 1 -44 6 -48 21 -5 14 -8 15 -14 6 -4 -7
-12 -10 -18 -6 -6 3 -12 1 -14 -5 -2 -7 -12 -4 -26 8 -21 16 -22 22 -14 60 9
38 8 42 -15 52 -15 7 -21 16 -17 23 18 28 -9 128 -29 113 -4 -3 -5 -2 -2 1 8
11 -15 44 -30 44 -13 0 -17 12 -14 37 0 3 -6 10 -15 15 -9 5 -16 16 -16 24 0
8 -4 12 -10 9 -6 -3 -10 -1 -10 5 0 7 -7 9 -16 6 -8 -3 -12 -2 -9 4 3 5 -7 22
-23 37 -26 25 -29 34 -26 81 4 65 -14 77 -50 35 -14 -15 -26 -23 -26 -16 0 6
4 14 9 17 4 3 8 18 7 33 -1 39 -41 43 -80 8 -32 -27 -42 -30 -51 -15 -4 6 -11
8 -16 5 -5 -4 -9 -1 -9 5 0 6 -5 8 -12 4 -10 -6 -10 -4 0 8 10 13 10 19 -3 32
-18 18 -26 20 -22 7 1 -5 -2 -9 -8 -9 -5 0 -9 4 -8 9 2 5 -2 9 -7 9 -23 0 -8
29 18 34 133 27 425 37 485 17 25 -9 53 -9 97 -2 42 7 88 7 143 0 103 -13 372
-18 389 -7 14 8 11 10 -24 11 -13 1 -26 7 -29 15 -4 12 -8 12 -22 -2 -9 -10
-17 -13 -17 -7 0 6 -9 11 -21 11 -11 0 -17 4 -14 10 3 6 -1 7 -10 4 -8 -4 -32
2 -53 12 -20 9 -43 17 -49 17 -7 0 -13 5 -13 10 0 5 7 7 15 3 18 -7 20 10 3
21 -12 8 -38 47 -38 58 0 3 7 5 15 5 8 0 15 4 15 8 0 4 -9 8 -20 8 -13 0 -20
-7 -20 -18 0 -10 -5 -18 -11 -18 -6 0 -9 7 -5 15 3 8 2 14 -2 14 -28 -4 -32 2
-16 26 9 14 12 25 6 25 -6 0 -13 -8 -15 -17 -3 -13 -5 -12 -6 5 -1 16 -5 21
-13 16 -8 -5 -7 0 2 11 14 17 14 18 -10 5 -25 -13 -25 -13 -7 8 19 21 8 40
-15 26 -10 -6 -10 -4 0 8 11 14 11 25 -3 64 -9 26 -24 54 -33 62 -16 13 -15
13 3 7 11 -4 26 -8 33 -8 15 0 16 -17 1 -17 -5 0 -7 -4 -4 -10 8 -13 25 -13
25 0 0 6 20 31 45 55 24 25 40 45 35 45 -5 0 -7 8 -4 18 5 16 5 16 -6 0 -9
-15 -14 -16 -30 -5 -26 15 -25 27 0 22 11 -2 18 0 15 6 -4 5 -13 9 -21 9 -20
0 -17 20 4 21 14 0 14 2 -3 8 -23 9 -85 -31 -85 -55 0 -8 -9 -14 -20 -14 -12
0 -20 -7 -20 -17 0 -35 -19 4 -43 84 -13 46 -26 85 -30 89 -3 4 -41 -14 -84
-39 -70 -41 -85 -46 -143 -46 -92 -2 -99 -3 -104 -18 -3 -7 -12 -13 -21 -13
-8 0 -15 -4 -15 -10 0 -5 -12 -10 -26 -10 -14 0 -23 4 -19 10 3 6 1 10 -4 10
-6 0 -11 -9 -11 -20 0 -21 -15 -27 -25 -10 -3 6 -11 10 -16 10 -6 0 -3 -7 5
-16 22 -21 10 -36 -28 -34 -17 1 -35 1 -41 0 -5 -1 -13 -2 -16 -2 -3 1 -6 -5
-6 -13 0 -10 7 -11 26 -4 25 9 25 8 7 -6 -18 -13 -18 -15 -2 -15 14 0 12 -6
-11 -30 -23 -24 -42 -32 -92 -41 -36 -5 -68 -12 -73 -15 -4 -3 -8 0 -8 5 0 6
-7 11 -15 11 -13 0 -14 4 -5 20 6 11 7 20 3 20 -4 0 1 6 12 13 12 10 14 16 7
21 -20 12 -13 29 8 23 11 -3 20 -1 20 4 0 5 -4 9 -8 9 -5 0 -8 10 -6 23 1 12
3 28 3 35 1 6 8 12 16 12 19 0 19 17 0 54 -12 23 -12 26 -1 17 11 -9 15 -7 19
9 3 11 0 20 -6 20 -23 0 9 20 36 22 15 1 27 6 27 11 0 4 5 5 10 2 6 -4 7 -11
4 -17 -5 -7 -2 -8 5 -3 9 5 5 15 -15 36 -15 15 -30 26 -34 24 -4 -3 -10 4 -13
15 -3 11 -1 20 4 20 6 0 9 6 7 13 -2 7 1 12 7 12 5 0 9 -3 8 -7 -2 -4 4 -5 12
-1 16 6 14 11 -28 58 -10 10 -15 25 -13 31 3 7 -3 14 -13 17 -20 5 -31 43 -23
83 5 26 5 26 71 19 36 -3 95 -13 131 -20 76 -16 202 -32 315 -41 77 -5 81 -5
81 15 0 11 -2 18 -5 16 -7 -8 -30 29 -31 48 0 10 -7 20 -15 24 -14 5 -14 8 -1
27 13 20 12 24 -6 35 -11 7 -17 8 -13 2 3 -6 1 -11 -4 -11 -6 0 -11 11 -11 25
0 19 5 25 21 25 12 0 23 8 26 20 3 11 10 20 17 20 8 0 8 3 0 8 -17 11 -25 42
-11 42 17 0 44 33 40 47 -9 27 22 23 49 -6 16 -17 34 -31 39 -31 16 0 59 -36
52 -44 -3 -3 -1 -6 5 -6 7 0 12 5 12 11 0 8 5 7 15 -1 14 -12 15 -10 11 15
l-5 28 27 -24 c14 -13 20 -16 13 -6 -7 9 -11 17 -7 17 3 0 -2 8 -11 18 -10 10
-26 16 -36 14 -10 -3 -17 -1 -16 4 4 23 -2 36 -15 31 -10 -4 -13 -1 -10 8 3 7
12 16 19 19 9 3 12 0 9 -8 -3 -8 -1 -17 4 -20 5 -3 12 4 15 15 4 16 9 19 23
11 9 -5 26 -7 37 -4 15 4 18 2 12 -8 -6 -9 -4 -11 4 -5 8 4 10 17 6 32 -4 16
-2 22 5 18 5 -3 10 2 11 12 0 16 1 16 8 -2 5 -11 4 -23 -2 -26 -12 -8 1 -32
13 -24 5 3 7 16 4 30 -2 13 0 26 5 29 5 3 8 0 7 -7 0 -6 2 -12 5 -12 3 0 13
-6 22 -14 14 -11 18 -11 23 4 5 13 9 14 15 3 15 -24 10 -36 -13 -31 -16 3 -19
2 -10 -5 11 -7 10 -13 -4 -27 -17 -17 -17 -17 4 -11 16 5 22 3 22 -7 0 -9 -5
-17 -11 -19 -7 -2 -7 -12 1 -32 9 -25 9 -27 -4 -17 -11 9 -16 9 -22 0 -4 -7
-3 -9 3 -6 11 7 35 -15 32 -29 -4 -22 2 -35 15 -32 8 2 15 -1 16 -7 1 -5 6
-15 12 -22 6 -8 6 -18 0 -30 -7 -12 -7 -25 0 -37 7 -13 7 -17 0 -12 -6 4 -10
-1 -9 -13 0 -11 6 -17 14 -14 7 3 13 0 13 -7 0 -7 8 -19 18 -26 11 -9 13 -13
4 -14 -7 0 -21 7 -30 16 -15 15 -17 15 -25 -9 -5 -16 -4 -33 2 -44 8 -16 34
-19 203 -29 158 -9 195 -8 204 3 6 7 16 13 23 13 6 0 11 13 11 29 0 17 11 42
25 59 16 19 21 32 14 34 -16 5 19 98 37 98 7 0 18 9 25 21 10 19 9 20 -13 14
-12 -4 -31 -18 -41 -31 -23 -30 -62 -31 -78 -3 -6 12 -7 24 -2 28 25 18 61 73
57 86 -4 8 1 18 10 21 9 3 16 15 16 26 0 10 4 17 9 14 5 -3 15 2 22 11 12 15
12 16 -3 11 -9 -4 -19 -1 -22 7 -3 8 0 12 7 10 7 -3 28 24 49 60 21 38 31 65
24 65 -6 0 -17 -5 -24 -12 -9 -9 -12 -9 -12 0 0 9 -601 12 -2675 12 l-2675 0
0 -1365z m4885 1345 c3 -5 1 -10 -4 -10 -6 0 -11 5 -11 10 0 6 2 10 4 10 3 0
8 -4 11 -10z m-110 -50 c3 -6 -1 -7 -9 -4 -18 7 -21 14 -7 14 6 0 13 -4 16
-10z m-25 -20 c0 -5 -2 -10 -4 -10 -3 0 -8 5 -11 10 -3 6 -1 10 4 10 6 0 11
-4 11 -10z m103 -25 c-7 -21 -13 -19 -13 6 0 11 4 18 10 14 5 -3 7 -12 3 -20z
m-227 4 c4 -8 9 -7 15 2 7 11 9 11 9 -2 0 -9 -7 -19 -15 -23 -8 -3 -15 -1 -15
4 0 6 -3 9 -7 9 -5 -1 -17 -1 -28 1 l-20 1 20 9 c28 12 33 12 41 -1z m-983
-51 c-6 -50 -20 -81 -34 -73 -5 4 -9 16 -8 28 0 12 3 16 6 10 2 -7 9 -13 14
-13 11 0 7 22 -5 32 -8 5 17 58 28 58 2 0 1 -19 -1 -42z m-586 0 c-3 -7 -5 -2
-5 12 0 14 2 19 5 13 2 -7 2 -19 0 -25z m1493 -27 c0 -6 -4 -12 -8 -15 -5 -3
-9 1 -9 9 0 8 4 15 9 15 4 0 8 -4 8 -9z m290 -100 c-6 -12 -5 -22 1 -28 8 -8
7 -13 0 -18 -16 -9 -24 20 -12 43 6 11 7 23 3 27 -4 5 -1 5 6 1 8 -5 9 -13 2
-25z m-36 -16 c-4 -8 -10 -12 -15 -9 -11 6 -2 24 11 24 5 0 7 -7 4 -15z m-894
-49 c0 -27 -12 -45 -26 -39 -17 6 -18 25 -2 41 16 16 28 15 28 -2z m-157 -72
c-2 -5 5 -19 17 -29 25 -22 25 -38 3 -56 -16 -12 -17 -12 -5 2 11 14 9 16 -14
11 -19 -3 -25 -1 -20 7 4 6 0 14 -11 18 -24 8 -60 45 -42 42 24 -3 40 1 36 9
-3 4 5 7 18 7 12 0 21 -5 18 -11z m34 -16 c-3 -8 -6 -5 -6 6 -1 11 2 17 5 13
3 -3 4 -12 1 -19z m-68 -260 c-6 -10 -12 -18 -15 -18 -3 0 -2 5 2 11 4 7 -3
10 -22 7 -15 -1 -29 2 -31 8 -2 7 11 11 36 10 34 -1 38 -3 30 -18z m-114 -89
c0 -13 6 -24 12 -24 6 0 15 -3 19 -7 4 -5 0 -8 -10 -8 -11 0 -15 -5 -10 -12 4
-7 4 -10 0 -6 -4 3 -7 9 -6 13 1 4 -8 15 -19 25 -13 11 -19 24 -15 34 9 24 29
14 29 -15z m49 6 c-4 -8 -10 -12 -15 -9 -14 8 -10 24 6 24 9 0 12 -6 9 -15z
m443 -151 c-3 -3 -12 -4 -19 -1 -8 3 -5 6 6 6 11 1 17 -2 13 -5z m-2091 -30
c-3 -9 -6 -27 -6 -40 0 -13 -4 -24 -10 -24 -5 0 -10 18 -10 40 0 30 4 40 16
40 11 0 14 -5 10 -16z m2698 7 c3 -4 -6 -13 -19 -19 -27 -12 -33 -4 -13 16 14
14 25 15 32 3z m636 -15 c0 -11 -19 -15 -25 -6 -3 5 1 10 9 10 9 0 16 -2 16
-4z m-793 -28 c-3 -8 -6 -5 -6 6 -1 11 2 17 5 13 3 -3 4 -12 1 -19z m97 7 c-4
-8 -11 -12 -16 -9 -6 4 -5 10 3 15 19 12 19 11 13 -6z m2100 -4 c4 -5 0 -12
-6 -14 -7 -3 -2 -6 10 -6 29 -1 24 -25 -6 -29 -15 -2 -22 2 -22 13 0 12 -4 14
-19 5 -11 -5 -22 -10 -25 -10 -12 0 -6 38 7 43 21 9 56 7 61 -2z m-3958 -10
c-4 -5 0 -11 6 -14 7 -2 10 -8 5 -12 -10 -12 -31 11 -23 24 4 6 9 11 12 11 3
0 3 -4 0 -9z m919 -50 c3 -5 2 -12 -3 -15 -5 -3 -9 1 -9 9 0 17 3 19 12 6z
m2965 -23 c0 -13 -8 -18 -30 -18 -30 0 -43 24 -17 33 25 9 47 2 47 -15z
m-4682 -37 c2 -31 -1 -41 -13 -41 -16 0 -18 11 -9 59 8 41 19 32 22 -18z m792
23 c0 -8 -4 -12 -10 -9 -5 3 -10 10 -10 16 0 5 5 9 10 9 6 0 10 -7 10 -16z
m950 -20 c0 -8 -4 -14 -10 -14 -5 0 -10 9 -10 21 0 11 5 17 10 14 6 -3 10 -13
10 -21z m880 22 c0 -2 -7 -7 -16 -10 -8 -3 -12 -2 -9 4 6 10 25 14 25 6z m20
-30 c0 -11 -19 -15 -25 -6 -3 5 1 10 9 10 9 0 16 -2 16 -4z m-2052 -22 c8 -14
10 -14 21 0 10 12 18 13 33 5 18 -10 20 -18 15 -73 -2 -33 -12 -81 -22 -106
-9 -25 -17 -53 -18 -62 -1 -20 -25 -22 -96 -9 -55 11 -68 28 -77 98 -5 45 -4
57 9 64 8 5 18 22 22 38 5 25 35 65 35 48 0 -3 12 -2 28 3 39 12 40 12 50 -6z
m812 -34 c0 -5 -5 -10 -11 -10 -5 0 -7 5 -4 10 3 6 8 10 11 10 2 0 4 -4 4 -10z
m3405 -10 c-14 -16 -21 -17 -39 -8 -20 11 -20 11 -1 19 11 4 29 8 39 8 18 1
18 0 1 -19z m-135 -11 c0 -5 -13 -9 -30 -9 -30 0 -41 15 -17 23 17 5 47 -3 47
-14z m-4664 -15 c4 -17 2 -29 -7 -35 -22 -14 -34 -5 -37 29 -3 27 0 32 17 32
14 0 23 -9 27 -26z m4864 -24 c0 -5 -17 -10 -37 -10 -28 0 -34 3 -23 10 20 13
60 13 60 0z m-150 -36 c0 -2 -11 -4 -25 -4 -14 0 -25 4 -25 9 0 4 11 6 25 3
14 -2 25 -6 25 -8z m-4712 -3 c7 -4 17 -25 22 -45 7 -30 5 -38 -10 -46 -50
-27 -75 10 -50 74 10 28 17 31 38 17z m2732 -66 c0 -8 -2 -15 -4 -15 -2 0 -6
7 -10 15 -3 8 -1 15 4 15 6 0 10 -7 10 -15z m4223 -60 c-3 -9 -8 -14 -10 -11
-3 3 -2 9 2 15 9 16 15 13 8 -4z m-3708 -25 c3 -5 1 -10 -4 -10 -6 0 -11 5
-11 10 0 6 2 10 4 10 3 0 8 -4 11 -10z m3685 -25 c0 -8 -4 -15 -10 -15 -5 0
-7 7 -4 15 4 8 8 15 10 15 2 0 4 -7 4 -15z m23 -20 c-3 -9 -8 -14 -10 -11 -3
3 -2 9 2 15 9 16 15 13 8 -4z m-156 -25 c3 0 12 8 20 18 13 15 13 15 3 -5 -6
-13 -8 -23 -5 -23 3 0 -4 -9 -15 -20 -32 -32 -22 -56 10 -27 12 10 12 9 1 -5
-13 -18 -55 -21 -46 -3 3 5 8 18 11 28 4 9 11 17 16 17 5 0 6 5 2 11 -4 8 -13
4 -26 -12 -18 -24 -18 -23 -1 15 12 25 19 33 21 22 2 -9 6 -16 9 -16z m483 26
c0 -2 -9 -6 -20 -9 -11 -3 -18 -1 -14 4 5 9 34 13 34 5z m-536 -41 c-4 -8 -10
-15 -15 -15 -4 0 -6 7 -3 15 4 8 10 15 15 15 4 0 6 -7 3 -15z m-581 -14 c-4
-3 -11 -10 -15 -15 -5 -5 -8 0 -8 12 0 15 4 20 16 15 9 -3 12 -9 7 -12z m710
-12 c4 -3 1 -12 -8 -19 -13 -11 -15 -10 -9 4 3 9 1 16 -6 16 -6 0 -8 5 -5 11
4 6 10 7 14 2 3 -4 10 -10 14 -14z m-213 -9 c0 -5 -5 -10 -11 -10 -5 0 -7 5
-4 10 3 6 8 10 11 10 2 0 4 -4 4 -10z m606 -12 c4 -7 4 -10 -1 -6 -4 4 -15 2
-24 -5 -14 -11 -14 -10 -2 6 16 20 18 21 27 5z m-416 -22 c0 -2 -8 -10 -17
-17 -16 -13 -17 -12 -4 4 13 16 21 21 21 13z m69 -22 c2 -2 -6 -2 -18 -1 -11
1 -21 5 -21 11 0 5 -10 1 -22 -10 l-23 -19 19 22 c15 19 22 20 40 11 11 -6 23
-12 25 -14z m341 1 c7 -9 8 -15 2 -15 -5 0 -12 7 -16 15 -3 8 -4 15 -2 15 2 0
9 -7 16 -15z m-110 1 c0 -2 -8 -10 -17 -17 -16 -13 -17 -12 -4 4 13 16 21 21
21 13z m-410 -10 c0 -2 -8 -10 -17 -17 -16 -13 -17 -12 -4 4 13 16 21 21 21
13z m450 0 c0 -2 -8 -10 -17 -17 -16 -13 -17 -12 -4 4 13 16 21 21 21 13z
m-400 -9 c0 -2 -10 -12 -22 -23 l-23 -19 19 23 c18 21 26 27 26 19z m103 -14
c-6 -16 -5 -17 13 -3 17 14 18 13 6 -1 -7 -9 -23 -15 -37 -14 -16 2 -31 -5
-43 -19 -16 -21 -58 -33 -46 -14 4 5 9 7 12 4 7 -8 42 24 42 37 0 6 -10 2 -22
-9 l-23 -19 19 22 c14 17 23 20 36 13 13 -7 21 -5 30 5 16 20 21 19 13 -2z
m-933 3 c0 -3 -4 -8 -10 -11 -5 -3 -10 -1 -10 4 0 6 5 11 10 11 6 0 10 -2 10
-4z m850 0 c0 -2 -8 -10 -17 -17 -16 -13 -17 -12 -4 4 13 16 21 21 21 13z
m285 -5 c-9 -8 -36 -10 -30 -2 2 4 11 8 20 8 8 0 13 -3 10 -6z m-1325 -9 c0
-5 -7 -9 -15 -9 -8 0 -12 4 -9 9 3 4 9 8 15 8 5 0 9 -4 9 -8z m1003 -26 c7 4
2 -4 -10 -18 -27 -29 -30 -46 -5 -27 15 13 16 12 4 -3 -8 -9 -20 -14 -28 -11
-13 5 -13 8 1 23 25 28 17 35 -12 9 -20 -17 -23 -18 -10 -3 19 23 23 39 7 29
-5 -3 -10 -1 -10 5 0 6 -4 9 -9 6 -5 -3 -11 1 -15 9 -4 12 3 11 35 -5 22 -12
45 -18 52 -14z m431 23 c-3 -5 6 -11 20 -15 31 -7 52 -29 36 -39 -6 -3 -7 -12
-4 -18 4 -7 -5 -1 -21 13 -16 14 -25 18 -20 10 7 -13 5 -13 -9 1 -22 20 -28
56 -11 56 8 0 12 -4 9 -8z m-297 -27 c-22 -24 -22 -38 1 -21 15 12 16 12 4 -2
-7 -9 -22 -15 -35 -15 -12 1 -30 -4 -39 -12 -10 -9 -18 -12 -18 -8 0 4 -5 4
-11 0 -8 -5 -8 -8 0 -14 9 -5 7 -10 -4 -20 -13 -11 -14 -10 -8 6 6 17 5 17
-10 5 -13 -10 -15 -17 -6 -27 6 -8 8 -14 4 -14 -4 0 -14 8 -22 18 -13 15 -13
15 -4 -4 13 -27 -16 -59 -39 -43 -12 8 -12 9 4 7 10 -2 21 3 24 11 3 8 0 11
-6 7 -21 -13 -3 37 24 65 21 22 31 26 44 19 13 -7 22 -5 30 5 10 12 10 15 0
15 -10 0 -10 3 -1 14 7 8 23 13 37 11 13 -1 27 2 30 6 3 5 8 9 11 9 3 0 -1 -8
-10 -18z m163 3 c-7 -9 -15 -13 -17 -11 -7 7 7 26 19 26 6 0 6 -6 -2 -15z
m-1343 -21 c-3 -3 -12 -4 -19 -1 -8 3 -5 6 6 6 11 1 17 -2 13 -5z m1177 -43
c-3 -3 -15 -6 -27 -6 -12 -1 -29 -5 -37 -10 -12 -7 -13 -6 -3 6 7 9 26 15 43
15 16 0 27 -2 24 -5z m36 5 c0 -2 -8 -10 -17 -17 -16 -13 -17 -12 -4 4 13 16
21 21 21 13z m-230 -20 c0 -3 -4 -8 -10 -11 -5 -3 -10 -1 -10 4 0 6 5 11 10
11 6 0 10 -2 10 -4z m-760 -10 c0 -2 -8 -10 -17 -17 -16 -13 -17 -12 -4 4 13
16 21 21 21 13z m-432 -22 c-1 -5 -9 -9 -16 -10 -10 -2 -11 1 -1 12 12 14 24
13 17 -2z m1352 1 c0 -1 -11 -12 -24 -24 -18 -17 -26 -19 -31 -10 -5 7 -4 10
2 6 6 -4 16 0 23 9 12 13 10 14 -14 10 -14 -3 -24 -1 -22 3 4 6 66 12 66 6z
m60 0 c0 -7 -30 -13 -34 -7 -3 4 4 9 15 9 10 1 19 0 19 -2z m-2810 -25 c0 -5
-5 -10 -11 -10 -5 0 -7 5 -4 10 3 6 8 10 11 10 2 0 4 -4 4 -10z m1120 -64 c0
-3 -4 -8 -10 -11 -5 -3 -10 -1 -10 4 0 6 5 11 10 11 6 0 10 -2 10 -4z m147
-26 c-19 -16 -37 -30 -41 -30 -9 0 57 59 67 60 4 0 -8 -13 -26 -30z m-97 6 c0
-3 -4 -8 -10 -11 -5 -3 -10 -1 -10 4 0 6 5 11 10 11 6 0 10 -2 10 -4z m1670
-20 c0 -2 -8 -10 -17 -17 -16 -13 -17 -12 -4 4 13 16 21 21 21 13z m-1603 -33
c-4 -3 -1 -13 6 -22 11 -14 10 -14 -5 -2 -16 12 -16 31 -1 31 4 0 3 -3 0 -7z
m-397 -13 c-12 -8 -11 -10 8 -10 12 0 22 -4 22 -9 0 -6 -12 -6 -32 0 -18 5
-34 9 -35 9 -2 0 -3 5 -3 10 0 6 12 10 28 10 21 0 24 -2 12 -10z m140 -20 c0
-5 -8 -10 -17 -10 -15 0 -16 2 -3 10 19 12 20 12 20 0z m-318 -9 c8 11 9 11 6
1 -4 -16 -22 -18 -25 -2 -1 7 0 6 4 -1 4 -8 8 -7 15 2z m2348 -22 c0 -5 -4 -9
-8 -9 -5 0 -9 7 -9 15 0 8 4 12 9 9 4 -3 8 -9 8 -15z m-2205 -24 c-22 -8 -53
-13 -70 -13 -21 0 -14 4 25 13 72 17 96 16 45 0z m-146 -21 c7 5 11 -3 10 -21
0 -25 -1 -26 -9 -8 -7 16 -9 14 -9 -14 -1 -45 -7 -37 -14 18 -3 25 -2 39 3 32
4 -8 13 -10 19 -7z m36 6 c3 -5 1 -10 -4 -10 -6 0 -11 5 -11 10 0 6 2 10 4 10
3 0 8 -4 11 -10z m-365 -59 c13 -13 13 -14 -3 -8 -10 4 -28 7 -38 7 -11 0 -18
4 -15 8 8 14 40 10 56 -7z m169 -33 c34 -9 40 -13 27 -20 -14 -8 -117 15 -171
38 -18 8 99 -7 144 -18z m2372 -13 c23 -27 14 -39 -15 -20 -12 8 -25 13 -28 9
-3 -3 -9 -1 -12 5 -4 6 2 8 15 6 18 -4 19 -2 8 11 -10 12 -10 15 1 12 8 -2 22
-12 31 -23z m66 -30 c0 -8 -4 -12 -9 -9 -5 3 -6 10 -3 15 9 13 12 11 12 -6z
m-2477 -29 c-7 -7 -14 -6 -21 1 -9 9 -7 12 9 10 14 -1 18 -5 12 -11z m1120 -1
c0 -7 -30 -13 -34 -7 -3 4 4 9 15 9 10 1 19 0 19 -2z m1100 -17 c0 -4 -4 -8
-9 -8 -6 0 -12 4 -15 8 -3 5 1 9 9 9 8 0 15 -4 15 -9z m-2203 -4 c-3 -3 -12
-4 -19 -1 -8 3 -5 6 6 6 11 1 17 -2 13 -5z m-1122 -55 c-4 -5 -1 -9 4 -9 6 0
10 -6 9 -12 -2 -7 2 -12 7 -11 6 1 11 -12 12 -29 1 -17 10 -42 19 -57 15 -23
15 -24 1 -13 -20 17 -78 133 -71 144 3 5 10 6 15 2 5 -3 7 -10 4 -15z m3515
-34 c-7 -9 -15 -13 -17 -11 -7 7 7 26 19 26 6 0 6 -6 -2 -15z m-3417 -85 c3
-13 1 -17 -9 -13 -8 3 -14 9 -14 13 0 5 -3 17 -7 27 -6 15 -4 16 9 5 9 -7 18
-21 21 -32z m3440 17 c2 -7 -10 -23 -27 -36 l-31 -25 22 25 c16 17 19 29 13
39 -9 14 -11 13 -14 -9 0 -5 -4 -12 -8 -16 -9 -9 -5 16 5 32 9 14 33 7 40 -10z
m-4349 -25 c3 -5 -1 -9 -9 -9 -8 0 -15 4 -15 9 0 4 4 8 9 8 6 0 12 -4 15 -8z
m974 -20 c12 -19 12 -22 1 -17 -19 7 -46 49 -28 43 7 -2 19 -14 27 -26z m72
-37 c0 -6 -9 -11 -19 -11 -11 0 -18 3 -17 6 2 3 6 14 10 25 6 16 9 17 16 5 6
-8 10 -20 10 -25z m-56 -11 c5 -14 4 -15 -9 -4 -17 14 -19 20 -6 20 5 0 12 -7
15 -16z m125 -25 l16 -24 -24 16 c-27 17 -42 44 -21 37 7 -2 20 -15 29 -29z
m-1095 15 c22 -9 21 -37 -1 -30 -22 6 -85 20 -95 20 -3 1 -10 4 -14 9 -9 8 87
10 110 1z m1185 -36 c11 -10 12 -10 7 -1 -5 9 -2 11 8 7 21 -8 31 -43 16 -58
-6 -6 -11 -6 -10 -1 5 26 -2 33 -33 31 -26 -2 -33 1 -33 16 0 21 26 24 45 6z
m119 -83 c-9 -9 -30 14 -23 25 6 9 10 8 17 -4 6 -10 8 -19 6 -21z m1252 25
c-20 -13 -33 -13 -25 0 3 6 14 10 23 10 15 0 15 -2 2 -10z m-2659 -11 c-16 -6
-28 -6 -35 1 -7 7 1 10 25 9 32 0 33 -1 10 -10z m-51 -19 c9 6 20 4 30 -5 8
-7 18 -14 23 -14 19 -2 5 -15 -20 -19 -15 -2 -35 -9 -43 -16 -18 -16 -40 -10
-40 10 0 8 10 14 23 14 20 1 21 2 5 14 -10 7 -15 16 -11 20 4 3 9 2 13 -3 3
-6 11 -6 20 -1z m4680 -16 c0 -2 -8 -8 -18 -13 -14 -7 -18 -6 -18 8 0 12 6 17
18 13 10 -2 18 -6 18 -8z m-3113 -13 c0 -11 -6 -17 -14 -14 -18 7 -17 33 1 33
8 0 14 -8 13 -19z m3038 9 c3 -5 1 -10 -4 -10 -6 0 -11 5 -11 10 0 6 2 10 4
10 3 0 8 -4 11 -10z m-1308 -6 c-3 -3 -12 -4 -19 -1 -8 3 -5 6 6 6 11 1 17 -2
13 -5z m-1654 -34 c3 -11 3 -20 1 -20 -2 0 -8 9 -14 20 -6 11 -7 20 -2 20 6 0
12 -9 15 -20z m1725 -10 c-7 -11 -23 -20 -35 -20 -22 0 -22 1 -6 20 10 11 25
20 35 20 16 0 16 -3 6 -20z"/>
<path d="M8854 5488 c4 -19 23 -20 30 -2 5 14 4 15 -8 5 -10 -8 -16 -9 -19 -1
-3 6 -4 5 -3 -2z"/>
<path d="M8775 5440 c-10 -11 -16 -22 -13 -25 3 -3 13 4 23 15 10 11 16 22 13
25 -3 3 -13 -4 -23 -15z"/>
<path d="M5826 7165 c-7 -19 3 -47 15 -39 5 3 7 9 4 13 -7 12 40 30 63 24 11
-2 23 0 26 6 5 7 -11 11 -47 11 -40 0 -56 -4 -61 -15z"/>
<path d="M5960 7143 c-14 -20 -24 -41 -22 -45 3 -11 -36 -88 -45 -88 -3 0 -14
7 -24 16 -15 13 -20 14 -41 2 -12 -8 -35 -13 -50 -12 -16 0 -28 -4 -28 -9 0
-6 -14 -23 -32 -39 -28 -25 -29 -28 -11 -28 20 0 19 -2 -7 -30 -33 -36 -44
-69 -24 -76 52 -16 51 -14 29 -30 -26 -19 -10 -29 47 -29 23 0 46 -4 50 -10 5
-6 8 -5 8 4 0 11 3 11 15 1 24 -20 18 -28 -19 -25 -21 2 -39 -2 -46 -10 -13
-16 -3 -24 37 -31 15 -3 30 -10 34 -16 4 -7 12 -7 25 1 11 6 45 15 77 21 38 8
57 16 57 26 0 8 8 14 18 14 11 1 7 5 -11 13 -26 11 -27 13 -12 34 9 13 22 19
34 16 24 -6 36 23 13 33 -14 6 -13 8 7 13 14 4 27 13 29 20 3 8 0 11 -7 7 -6
-4 -19 -2 -28 4 -17 11 -17 11 0 6 26 -8 57 11 57 35 0 11 -4 17 -10 14 -5 -3
-10 -2 -10 4 0 5 5 13 10 16 7 4 7 13 0 25 -8 15 -7 18 3 14 12 -4 37 33 37
56 0 14 -37 12 -50 -2 -6 -7 -20 -24 -31 -38 -16 -19 -22 -21 -28 -11 -7 11
-11 9 -19 -5 -14 -25 -37 -5 -28 24 5 15 14 19 47 17 22 -1 37 0 35 2 -3 3 -1
16 4 28 5 13 5 25 1 27 -5 2 -12 14 -16 27 -5 18 -4 22 6 16 8 -5 5 1 -5 13
-27 31 -47 27 -76 -15z m-90 -169 c0 -13 -38 -26 -52 -18 -11 7 19 31 38 31 8
0 14 -6 14 -13z m-20 -154 c0 -5 -2 -10 -4 -10 -3 0 -8 5 -11 10 -3 6 -1 10 4
10 6 0 11 -4 11 -10z m50 -20 c0 -5 -7 -7 -15 -4 -8 4 -15 8 -15 10 0 2 7 4
15 4 8 0 15 -4 15 -10z"/>
<path d="M6282 7164 c4 -24 35 -41 48 -28 17 17 0 44 -27 44 -17 0 -24 -5 -21
-16z"/>
<path d="M6350 7164 c8 -8 25 -14 39 -12 21 2 27 -2 29 -22 8 -66 35 -145 62
-185 24 -35 28 -48 21 -67 -12 -31 -42 -57 -77 -67 -27 -7 -29 -11 -27 -51 4
-75 88 -151 185 -166 34 -6 35 -5 31 18 -3 15 2 29 11 37 9 8 16 24 16 37 0
30 11 30 59 -1 l40 -24 -5 44 c-2 27 0 45 6 45 5 0 10 5 10 10 0 6 -6 10 -14
10 -8 0 -17 4 -20 9 -9 14 5 41 21 41 9 0 13 6 10 14 -3 8 1 17 10 20 23 9 -3
36 -34 36 -26 0 -83 26 -83 38 0 4 17 6 38 4 20 -2 48 1 62 7 19 8 21 10 6 10
-14 1 -16 4 -7 15 9 11 7 15 -8 19 -17 4 -19 14 -18 101 l2 96 -189 0 c-169 0
-187 -2 -176 -16z"/>
<path d="M6780 7165 c0 -26 44 -40 79 -25 17 7 36 18 42 26 10 12 1 14 -55 14
-52 0 -66 -3 -66 -15z"/>
<path d="M7007 7173 c-10 -9 -9 -43 1 -43 19 0 62 26 62 38 0 12 -51 17 -63 5z"/>
<path d="M7141 7154 c-6 -15 -10 -29 -7 -31 8 -8 26 7 26 22 0 8 8 19 18 24
15 9 15 10 -4 11 -13 0 -25 -10 -33 -26z"/>
<path d="M11147 7173 c-4 -3 -7 -15 -7 -25 0 -12 -7 -18 -21 -18 -15 0 -19 -5
-15 -15 3 -8 0 -15 -6 -15 -7 0 -6 -5 2 -15 10 -12 10 -18 1 -29 -8 -10 -9
-16 -1 -21 15 -9 12 -25 -5 -25 -18 0 -19 -12 -3 -28 9 -9 8 -12 -5 -13 -41
-3 -60 -16 -53 -36 5 -12 1 -14 -22 -10 -25 5 -27 3 -26 -21 0 -16 7 -27 15
-27 18 -1 14 -46 -6 -61 -12 -9 -12 -14 6 -32 11 -12 25 -22 32 -22 7 -1 5 -6
-5 -14 -10 -7 -18 -18 -18 -25 0 -6 -9 -11 -19 -11 -11 0 -23 -5 -26 -10 -4
-6 -12 -7 -18 -4 -7 4 -8 3 -4 -2 5 -5 21 -9 35 -9 22 -1 28 -6 30 -28 2 -15
-3 -41 -12 -57 -8 -17 -10 -28 -5 -25 5 4 9 2 9 -4 0 -5 -5 -13 -10 -16 -6 -4
-8 -11 -4 -16 3 -5 2 -9 -3 -8 -20 3 -27 -2 -14 -10 12 -8 12 -12 2 -25 -7 -9
-18 -13 -24 -9 -6 4 -8 0 -4 -10 3 -9 -1 -18 -11 -22 -16 -6 -15 -7 2 -17 13
-7 15 -12 6 -18 -8 -5 -4 -15 14 -35 14 -15 23 -32 19 -38 -4 -6 -1 -7 6 -3 8
5 14 0 18 -13 3 -12 9 -21 14 -21 5 0 9 -6 9 -14 0 -8 8 -13 17 -12 26 2 39
-46 24 -91 -7 -21 -13 -48 -14 -60 -1 -13 -5 -23 -10 -23 -5 0 -7 -6 -4 -14 8
-19 -7 -23 -79 -22 -45 1 -60 -2 -57 -11 4 -9 32 -13 93 -13 49 0 92 -4 95
-10 3 -5 23 -10 43 -9 l37 1 -32 14 c-32 14 -63 49 -63 71 0 8 13 13 34 13 19
0 38 5 41 10 9 15 92 13 98 -2 6 -18 -4 -81 -14 -93 -5 -5 -9 -17 -9 -27 0 -9
-8 -33 -17 -53 l-17 -35 -182 0 c-101 0 -194 4 -208 10 -17 6 -26 6 -26 0 0
-6 -50 -10 -124 -10 l-123 0 -32 -67 c-18 -38 -46 -97 -62 -132 -17 -35 -27
-67 -22 -71 4 -5 55 -15 113 -24 99 -15 216 -35 410 -70 47 -8 114 -22 150
-30 80 -19 81 -19 74 -1 -3 8 1 36 9 62 9 27 21 68 27 93 7 25 16 53 21 62 5
10 9 25 9 33 0 9 13 44 29 80 16 35 32 79 36 97 4 18 18 56 30 83 13 28 26 60
30 73 3 12 11 22 16 22 5 0 9 11 9 25 0 14 5 25 12 25 6 0 9 3 5 6 -3 3 3 23
14 42 10 20 19 44 19 54 0 25 84 45 245 57 185 14 248 5 288 -39 l30 -34 -7
-123 -6 -123 134 0 c107 0 136 3 146 15 7 8 18 14 25 13 7 -2 22 8 33 22 l21
25 22 -22 c31 -31 19 -53 -30 -53 -22 0 -41 5 -43 11 -2 7 -9 5 -17 -5 -12
-14 -8 -16 42 -16 31 0 59 5 62 11 4 6 13 8 21 5 8 -3 14 0 14 7 0 8 4 6 10
-3 5 -8 10 -11 10 -6 0 5 7 3 15 -4 8 -7 12 -17 9 -22 -4 -6 -10 -5 -15 3 -6
10 -9 8 -9 -8 0 -12 7 -26 15 -31 12 -6 14 -14 6 -33 l-9 -24 -7 27 -7 27 -24
-28 c-13 -16 -24 -34 -24 -41 0 -6 -4 -8 -10 -5 -5 3 -10 27 -10 52 l0 47 -27
-26 c-22 -20 -43 -28 -90 -34 l-63 -7 0 -221 c0 -209 -11 -685 -26 -1078 l-6
-178 631 0 631 0 0 -2225 0 -2225 25 0 25 0 0 3590 0 3590 -213 0 c-199 0
-213 -2 -224 -20 -11 -16 -9 -20 7 -25 20 -7 25 -17 13 -28 -3 -4 -8 -19 -9
-34 -2 -21 -1 -24 6 -13 9 13 10 13 10 0 0 -13 1 -13 10 0 5 8 10 12 10 7 0
-4 11 0 25 9 14 9 25 12 25 6 0 -6 -9 -13 -19 -17 -11 -3 -22 -19 -26 -36 l-7
-31 -26 25 c-15 13 -32 23 -38 20 -7 -2 -15 9 -19 24 -3 15 -14 37 -23 47 -16
18 -16 19 1 13 9 -4 17 -2 17 4 0 6 5 7 10 4 6 -3 10 -2 10 4 0 5 3 16 6 25 3
9 1 16 -4 16 -6 0 -14 -9 -17 -20 -8 -25 -22 -26 -30 -1 -6 19 -18 19 -261 19
-234 0 -255 -1 -250 -16 5 -15 4 -15 -8 1 -12 16 -49 17 -508 17 l-495 0 -13
-27 -14 -28 -4 28 -3 27 -118 0 c-65 0 -121 -3 -124 -7z m1350 -38 c0 -8 -6
-15 -13 -15 -18 0 -27 17 -12 23 21 9 25 8 25 -8z m263 5 c0 -5 -5 -10 -11
-10 -5 0 -7 5 -4 10 3 6 8 10 11 10 2 0 4 -4 4 -10z m-477 -26 c-3 -8 1 -14
11 -14 12 0 16 -10 16 -44 0 -25 -5 -48 -11 -51 -6 -5 -4 -12 8 -21 10 -7 14
-13 8 -14 -17 0 -32 14 -39 38 -4 12 -11 22 -16 22 -13 0 -22 68 -10 89 12 23
42 18 33 -5z m-369 -36 c-6 -9 -34 -11 -34 -3 0 3 6 12 13 19 12 14 31 0 21
-16z m1366 22 c-20 -13 -43 -13 -35 0 3 6 16 10 28 10 18 0 19 -2 7 -10z
m-635 -28 c-3 -3 -11 0 -18 7 -9 10 -8 11 6 5 10 -3 15 -9 12 -12z m327 -79
c3 -30 0 -39 -8 -32 -11 9 -17 -1 -39 -66 -6 -19 -7 -18 -20 6 -8 15 -17 46
-21 69 -7 42 -7 43 19 37 22 -6 24 -4 19 15 -3 14 -1 19 6 14 6 -3 17 0 24 8
14 16 15 14 20 -51z m-1664 35 c-8 -12 -20 -24 -27 -26 -9 -3 -7 5 4 22 10 14
22 26 27 26 6 0 4 -10 -4 -22z m1982 2 c0 -11 -4 -20 -10 -20 -5 0 -10 9 -10
20 0 11 5 20 10 20 6 0 10 -9 10 -20z m-1495 -10 c4 -6 -5 -10 -19 -10 -14 0
-26 5 -26 10 0 6 9 10 19 10 11 0 23 -4 26 -10z m377 -35 c5 -22 2 -25 -23
-25 -34 0 -35 3 -12 30 23 26 30 25 35 -5z m63 15 c3 -5 -1 -10 -9 -10 -8 0
-18 5 -21 10 -3 6 1 10 9 10 8 0 18 -4 21 -10z m574 -44 c12 -14 5 -46 -9 -46
-9 0 -20 25 -20 46 0 18 14 18 29 0z m-887 -28 c-7 -7 -12 -23 -12 -37 0 -15
-7 -35 -15 -45 -14 -19 -15 -18 -15 12 0 18 -4 32 -10 32 -16 0 0 27 23 38 30
15 43 14 29 0z m39 -17 c-10 -6 -12 -22 -7 -57 4 -27 2 -55 -3 -63 -6 -9 -11
6 -16 47 -7 66 -3 82 23 82 13 0 14 -2 3 -9z m771 -13 c-7 -7 -12 -8 -12 -2 0
14 12 26 19 19 2 -3 -1 -11 -7 -17z m-1698 -14 c3 -8 2 -12 -4 -9 -6 3 -10 10
-10 16 0 14 7 11 14 -7z m1814 -69 c1 -37 0 -38 -10 -15 -13 33 -17 70 -10 90
8 21 20 -22 20 -75z m-1648 71 c0 -3 -4 -8 -10 -11 -5 -3 -10 -1 -10 4 0 6 5
11 10 11 6 0 10 -2 10 -4z m-148 -48 c-8 -8 -9 -4 -5 13 4 13 8 18 11 10 2 -7
-1 -18 -6 -23z m965 -10 c-3 -8 -6 -5 -6 6 -1 11 2 17 5 13 3 -3 4 -12 1 -19z
m743 -127 c0 -32 -6 -24 -14 19 -4 25 -3 31 4 20 5 -8 10 -26 10 -39z m92 10
c2 -17 1 -28 -4 -25 -8 5 -12 54 -4 54 2 0 6 -13 8 -29z m529 2 c13 -16 12
-17 -3 -4 -17 13 -22 21 -14 21 2 0 10 -8 17 -17z m-1320 -28 c5 4 9 -8 9 -25
0 -35 -22 -38 -29 -4 -2 10 -8 22 -13 25 -6 4 -7 12 -3 19 6 9 10 8 17 -4 5
-9 13 -14 19 -11z m1329 -19 c26 -49 4 -60 -81 -41 l-34 8 35 28 c42 35 63 37
80 5z m-1350 -50 c0 -2 -7 -7 -16 -10 -8 -3 -12 -2 -9 4 6 10 25 14 25 6z
m1070 -21 c0 -8 -7 -15 -16 -15 -14 0 -14 3 -4 15 7 8 14 15 16 15 2 0 4 -7 4
-15z m-237 -16 c4 -3 1 -12 -8 -19 -13 -11 -15 -9 -15 15 0 16 3 24 8 19 4 -5
11 -11 15 -15z m527 -30 c0 -31 -4 -48 -10 -44 -11 7 -13 54 -4 79 10 27 14
18 14 -35z m-1380 32 c0 -6 -4 -13 -10 -16 -5 -3 -10 1 -10 9 0 9 5 16 10 16
6 0 10 -4 10 -9z m78 -14 c4 -21 -30 -24 -47 -3 -9 11 -9 15 1 19 22 9 43 2
46 -16z m812 -37 c-19 -12 -30 -12 -30 -1 0 10 31 20 40 14 2 -2 -2 -8 -10
-13z m-890 -45 c0 -9 -9 -15 -22 -15 -22 1 -23 1 -4 15 25 19 26 19 26 0z
m100 5 c0 -5 -5 -10 -11 -10 -5 0 -7 5 -4 10 3 6 8 10 11 10 2 0 4 -4 4 -10z
m120 1 c0 -14 -18 -23 -31 -15 -8 4 -7 9 2 15 18 11 29 11 29 0z m590 3 c0 -3
-9 -17 -20 -31 -17 -21 -21 -23 -26 -9 -9 24 3 46 26 46 11 0 20 -3 20 -6z
m99 -77 c1 -5 -3 -5 -9 -2 -5 3 -10 16 -9 28 0 21 1 21 9 2 5 -11 9 -24 9 -28z
m-806 13 c13 0 17 -4 12 -9 -20 -20 -37 -16 -40 9 -2 14 -1 19 1 13 3 -7 15
-13 27 -13z m278 -27 c-8 -15 -10 -15 -11 -2 0 17 10 32 18 25 2 -3 -1 -13 -7
-23z m99 -137 c-11 -11 -39 19 -40 43 0 10 8 7 25 -9 17 -16 22 -27 15 -34z
m517 -11 c-4 -8 -2 -17 3 -20 6 -4 10 -11 10 -18 0 -6 -10 -2 -21 10 -12 11
-18 26 -15 32 11 16 29 13 23 -4z m-638 -69 c-3 -3 -11 5 -18 17 -13 21 -12
21 5 5 10 -10 16 -20 13 -22z m613 -66 c26 0 18 -24 -10 -28 -18 -3 -22 1 -21
25 0 15 3 22 6 16 2 -7 14 -13 25 -13z m-433 -104 c-12 -14 -26 2 -34 39 l-7
30 25 -30 c16 -19 22 -34 16 -39z m291 -28 c10 3 9 -2 -5 -18 -19 -21 -20 -21
-23 -4 -2 11 -8 23 -13 29 -5 5 -9 14 -9 20 1 5 8 1 18 -11 10 -11 24 -18 32
-16z m217 10 c-3 -8 -6 -5 -6 6 -1 11 2 17 5 13 3 -3 4 -12 1 -19z m-480 -65
c-3 -10 -5 -4 -5 12 0 17 2 24 5 18 2 -7 2 -21 0 -30z m334 20 c13 -16 12 -17
-3 -4 -10 7 -18 15 -18 17 0 8 8 3 21 -13z m-72 -329 c-4 -285 -3 -296 16
-310 19 -14 19 -15 -4 -81 -21 -59 -23 -76 -17 -163 8 -111 -1 -193 -17 -165
-11 21 -14 208 -3 277 4 25 3 49 -2 52 -9 5 -7 210 3 336 3 36 5 120 6 187 0
115 5 163 16 163 3 0 3 -133 2 -296z m-252 79 c-3 -10 -5 -2 -5 17 0 19 2 27
5 18 2 -10 2 -26 0 -35z m394 -4 c-6 -16 -10 -18 -10 -7 -1 22 12 55 16 42 2
-6 -1 -22 -6 -35z m-368 -151 c14 -8 23 -668 10 -668 -5 0 -9 147 -9 326 -1
229 -5 329 -13 337 -6 6 -10 29 -9 52 l1 40 4 -40 c3 -22 10 -43 16 -47z m344
50 c-3 -7 -5 -2 -5 12 0 14 2 19 5 13 2 -7 2 -19 0 -25z m-10 -50 c-3 -8 -6
-5 -6 6 -1 11 2 17 5 13 3 -3 4 -12 1 -19z m-16 -81 c-13 -13 -15 11 -4 40 7
16 8 15 11 -6 2 -13 -1 -28 -7 -34z m-34 -134 c-3 -10 -5 -4 -5 12 0 17 2 24
5 18 2 -7 2 -21 0 -30z m-90 -505 c-3 -8 -6 -5 -6 6 -1 11 2 17 5 13 3 -3 4
-12 1 -19z m20 -70 c-3 -8 -6 -5 -6 6 -1 11 2 17 5 13 3 -3 4 -12 1 -19z"/>
<path d="M12282 7060 c0 -19 2 -27 5 -17 2 9 2 25 0 35 -3 9 -5 1 -5 -18z"/>
<path d="M12950 7170 c0 -5 5 -10 10 -10 6 0 10 5 10 10 0 6 -4 10 -10 10 -5
0 -10 -4 -10 -10z"/>
<path d="M5865 7120 c3 -5 8 -10 11 -10 2 0 4 5 4 10 0 6 -5 10 -11 10 -5 0
-7 -4 -4 -10z"/>
<path d="M5856 7079 c16 -31 38 -38 48 -14 3 9 0 15 -9 15 -8 0 -15 4 -15 9 0
5 -9 11 -20 14 -18 5 -19 3 -4 -24z"/>
<path d="M7111 7094 c0 -11 3 -14 6 -6 3 7 2 16 -1 19 -3 4 -6 -2 -5 -13z"/>
<path d="M7326 7075 c-15 -24 -15 -25 2 -25 21 0 42 18 42 37 0 22 -27 15 -44
-12z"/>
<path d="M6829 7071 c-32 -8 -33 -48 0 -69 l21 -15 -26 -24 c-29 -27 -27 -41
4 -24 13 7 22 7 29 0 13 -13 46 35 46 67 0 20 -32 74 -43 73 -3 -1 -17 -4 -31
-8z"/>
<path d="M4652 6995 c-7 -8 -9 -15 -4 -15 5 0 15 7 22 15 16 19 -1 19 -18 0z"/>
<path d="M6996 6901 c-4 -7 -5 -15 -2 -18 9 -9 19 4 14 18 -4 11 -6 11 -12 0z"/>
<path d="M9357 6893 c-12 -11 -8 -23 7 -23 8 0 16 7 20 15 5 15 -14 21 -27 8z"/>
<path d="M8940 6869 c0 -5 5 -7 10 -4 6 3 10 8 10 11 0 2 -4 4 -10 4 -5 0 -10
-5 -10 -11z"/>
<path d="M4360 6851 c0 -5 7 -12 16 -15 9 -3 12 -11 8 -18 -5 -9 -3 -9 9 1 9
7 17 19 17 25 0 6 -4 4 -10 -4 -8 -12 -10 -12 -16 3 -6 18 -24 24 -24 8z"/>
<path d="M8855 6850 c3 -5 8 -10 11 -10 2 0 4 5 4 10 0 6 -5 10 -11 10 -5 0
-7 -4 -4 -10z"/>
<path d="M9311 6821 c-7 -12 -7 -22 -2 -26 5 -3 13 4 16 16 9 28 -1 36 -14 10z"/>
<path d="M10856 6832 c-2 -4 -1 -14 3 -21 6 -10 10 -9 14 3 6 16 -8 32 -17 18z"/>
<path d="M7016 6797 c3 -10 9 -15 12 -12 3 3 0 11 -7 18 -10 9 -11 8 -5 -6z"/>
<path d="M8900 6800 c0 -6 7 -10 15 -10 8 0 15 2 15 4 0 2 -7 6 -15 10 -8 3
-15 1 -15 -4z"/>
<path d="M9292 6770 c0 -14 2 -19 5 -12 2 6 2 18 0 25 -3 6 -5 1 -5 -13z"/>
<path d="M9503 6783 c-13 -2 -23 -8 -23 -13 0 -13 34 -22 38 -11 2 6 7 9 12 6
4 -3 10 2 14 10 5 15 1 16 -41 8z"/>
<path d="M6075 6770 c-4 -6 -10 -8 -15 -5 -4 3 -11 -7 -14 -23 -4 -15 -10 -36
-13 -47 -6 -20 -5 -20 16 -1 12 11 20 24 18 30 -3 6 5 21 16 34 11 12 15 22 9
22 -6 0 -14 -5 -17 -10z"/>
<path d="M6240 6731 c-57 -21 -106 -43 -108 -50 -5 -14 34 -15 43 -1 4 6 10 8
15 5 5 -3 36 -7 70 -9 61 -4 62 -4 56 19 -8 33 3 59 19 45 9 -8 14 -5 18 10 3
11 2 20 -1 19 -4 0 -54 -17 -112 -38z"/>
<path d="M9320 6765 c0 -5 5 -17 10 -25 5 -8 10 -10 10 -5 0 6 -5 17 -10 25
-5 8 -10 11 -10 5z"/>
<path d="M7005 6740 c-3 -10 -25 -34 -48 -51 -59 -46 -67 -55 -29 -33 36 20
92 78 92 94 0 17 -8 11 -15 -10z"/>
<path d="M10823 6743 c9 -9 20 -13 24 -9 4 4 1 11 -7 16 -25 16 -35 11 -17 -7z"/>
<path d="M4780 6731 c0 -6 5 -13 10 -16 6 -3 10 1 10 9 0 9 -4 16 -10 16 -5 0
-10 -4 -10 -9z"/>
<path d="M6000 6676 c0 -8 -6 -17 -12 -19 -7 -3 -3 -6 10 -6 16 -1 22 5 22 19
0 11 -4 20 -10 20 -5 0 -10 -6 -10 -14z"/>
<path d="M9702 6649 c-5 -13 -7 -31 -4 -39 4 -9 9 -2 13 20 9 41 3 53 -9 19z"/>
<path d="M6746 6651 c-10 -16 5 -41 25 -41 14 0 19 7 19 25 0 18 -5 25 -19 25
-11 0 -22 -4 -25 -9z"/>
<path d="M5743 6608 c-2 -16 1 -18 10 -9 7 7 8 14 1 21 -6 6 -10 2 -11 -12z"/>
<path d="M5310 6595 c-10 -13 -9 -15 9 -15 12 0 21 6 21 15 0 8 -4 15 -9 15
-5 0 -14 -7 -21 -15z"/>
<path d="M5780 6600 c0 -5 5 -10 11 -10 5 0 7 5 4 10 -3 6 -8 10 -11 10 -2 0
-4 -4 -4 -10z"/>
<path d="M9706 6510 c3 -14 8 -59 10 -100 2 -42 10 -91 18 -110 8 -19 15 -29
16 -22 0 7 -5 23 -12 35 -6 12 -10 46 -9 77 1 30 -5 75 -14 100 -8 25 -12 34
-9 20z"/>
<path d="M6632 6311 c-8 -4 -12 -19 -10 -32 2 -18 9 -24 28 -24 19 0 26 6 28
24 3 20 -11 41 -28 41 -3 0 -11 -4 -18 -9z"/>
<path d="M4718 6293 c7 -3 16 -2 19 1 4 3 -2 6 -13 5 -11 0 -14 -3 -6 -6z"/>
<path d="M9752 6240 c0 -14 2 -19 5 -12 2 6 2 18 0 25 -3 6 -5 1 -5 -13z"/>
<path d="M4000 6230 c0 -6 7 -10 15 -10 8 0 15 2 15 4 0 2 -7 6 -15 10 -8 3
-15 1 -15 -4z"/>
<path d="M9762 6190 c0 -14 2 -19 5 -12 2 6 2 18 0 25 -3 6 -5 1 -5 -13z"/>
<path d="M3875 6170 c-3 -5 -1 -10 4 -10 6 0 11 5 11 10 0 6 -2 10 -4 10 -3 0
-8 -4 -11 -10z"/>
<path d="M9772 6120 c0 -14 2 -19 5 -12 2 6 2 18 0 25 -3 6 -5 1 -5 -13z"/>
<path d="M4663 6105 c-17 -15 -21 -23 -10 -19 9 3 17 11 17 18 0 7 3 6 9 -2 6
-10 10 -9 14 7 7 27 4 26 -30 -4z"/>
<path d="M9783 6050 c0 -25 2 -35 4 -22 2 12 2 32 0 45 -2 12 -4 2 -4 -23z"/>
<path d="M8856 6037 c-41 -43 -80 -91 -105 -131 -7 -12 -27 -30 -43 -39 -17
-10 -28 -20 -25 -24 4 -3 50 0 104 8 l98 13 44 48 c24 27 57 56 72 64 30 15
39 34 15 30 -8 -1 -20 -7 -28 -14 -8 -6 -17 -9 -20 -6 -3 2 -17 -9 -31 -26
-32 -37 -34 -37 -31 -2 10 96 11 122 1 122 -5 0 -28 -19 -51 -43z"/>
<path d="M10628 6073 c7 -3 16 -2 19 1 4 3 -2 6 -13 5 -11 0 -14 -3 -6 -6z"/>
<path d="M9810 6041 c0 -16 10 -21 58 -27 82 -10 890 4 911 16 11 7 -14 9 -79
5 -173 -9 -728 -7 -747 3 -10 5 -46 12 -80 15 -58 6 -63 5 -63 -12z"/>
<path d="M8939 5993 c-13 -16 -12 -17 4 -4 9 7 17 15 17 17 0 8 -8 3 -21 -13z"/>
<path d="M7247 5967 c-5 -24 -4 -50 4 -72 11 -30 10 -37 -4 -53 -16 -17 -16
-20 -2 -32 9 -7 18 -10 21 -7 4 3 2 50 -2 104 -8 85 -10 93 -17 60z"/>
<path d="M9793 5960 c0 -25 2 -35 4 -22 2 12 2 32 0 45 -2 12 -4 2 -4 -23z"/>
<path d="M9965 5970 c-105 -4 -134 -7 -95 -11 l55 -5 -52 -2 c-43 -2 -53 -5
-53 -19 0 -13 3 -14 12 -5 7 7 26 12 43 11 26 0 27 -2 10 -9 -34 -16 213 0
315 20 95 19 280 22 326 6 16 -6 21 -3 21 9 0 16 -19 17 -216 14 -119 -2 -283
-6 -366 -9z"/>
<path d="M9565 5930 c11 -17 60 -39 72 -32 20 12 -9 38 -45 40 -21 2 -31 -1
-27 -8z"/>
<path d="M11956 5931 c-3 -4 -8 -120 -12 -257 -7 -283 -20 -352 -80 -422 -38
-45 -157 -121 -146 -94 4 13 0 12 -22 -5 -37 -29 -127 -30 -172 -2 -26 16 -37
17 -59 9 -27 -10 -27 -12 -20 -63 10 -69 21 -360 20 -514 0 -68 3 -123 7 -123
4 0 8 131 8 290 l0 290 31 0 31 0 -6 -237 c-4 -131 -9 -261 -12 -289 l-6 -51
32 -7 c54 -10 278 -7 285 5 4 5 -18 85 -48 177 -148 449 -156 482 -127 482 8
0 68 -180 180 -537 l41 -133 104 0 105 0 1 238 c0 130 3 418 5 639 4 379 3
402 -13 405 -16 3 -18 14 -15 106 l4 102 -55 0 c-31 0 -58 -4 -61 -9z"/>
<path d="M9455 5913 c1 -10 9 -17 18 -15 12 2 15 -2 10 -15 -5 -17 -5 -17 8
-1 13 15 15 14 30 -18 10 -21 12 -31 4 -24 -6 5 -16 6 -20 2 -5 -4 -5 0 0 8 6
12 5 12 -5 3 -15 -14 -7 -42 12 -39 7 1 23 7 34 14 12 6 25 8 29 4 4 -4 -4 11
-19 32 -14 21 -26 43 -26 48 0 5 -4 6 -10 3 -5 -3 -10 -1 -10 4 0 6 -13 11
-29 11 -22 0 -29 -4 -26 -17z m98 -73 c-6 -6 -33 30 -33 44 0 6 9 0 20 -14 10
-14 16 -27 13 -30z"/>
<path d="M8940 5895 c-20 -21 -20 -23 -4 -20 11 2 22 4 25 4 4 1 9 8 12 16 10
25 -9 25 -33 0z m30 11 c0 -2 -8 -10 -17 -17 -16 -13 -17 -12 -4 4 13 16 21
21 21 13z"/>
<path d="M5396 5902 c-2 -4 4 -14 15 -20 19 -12 19 -11 9 8 -12 22 -16 24 -24
12z"/>
<path d="M4793 5839 c-2 -26 0 -29 12 -19 11 9 12 17 4 31 -13 25 -14 24 -16
-12z"/>
<path d="M9450 5852 c0 -7 -4 -11 -8 -8 -4 2 -8 -4 -8 -14 0 -11 2 -17 5 -15
2 3 11 -1 19 -8 8 -6 25 -12 36 -12 12 -1 26 -4 32 -8 6 -3 20 0 30 8 19 15
19 15 0 8 -15 -5 -17 -3 -11 8 7 11 6 12 -6 3 -24 -18 -57 -5 -77 31 -6 11
-12 14 -12 7z m21 -39 c13 -16 12 -17 -3 -4 -10 7 -18 15 -18 17 0 8 8 3 21
-13z"/>
<path d="M6768 5843 c7 -3 16 -2 19 1 4 3 -2 6 -13 5 -11 0 -14 -3 -6 -6z"/>
<path d="M6050 5806 c0 -9 5 -16 10 -16 6 0 10 4 10 9 0 6 -4 13 -10 16 -5 3
-10 -1 -10 -9z"/>
<path d="M9247 5813 c-4 -3 -7 -13 -7 -22 1 -13 3 -13 11 2 11 19 8 33 -4 20z"/>
<path d="M4824 5801 c3 -5 15 -7 26 -4 28 7 25 13 -6 13 -14 0 -23 -4 -20 -9z"/>
<path d="M6016 5777 c3 -10 9 -15 12 -12 3 3 0 11 -7 18 -10 9 -11 8 -5 -6z"/>
<path d="M5083 5773 c30 -8 17 -29 -15 -24 -5 0 -8 -2 -8 -6 0 -5 27 -9 60
-10 33 -1 60 2 60 7 0 5 -7 6 -17 3 -11 -4 -14 -3 -9 5 4 7 3 12 -3 12 -5 0
-11 -5 -13 -12 -2 -6 -10 -8 -16 -4 -17 10 -15 24 6 29 9 3 -1 5 -23 5 -22 0
-32 -2 -22 -5z"/>
<path d="M9380 5769 c0 -5 9 -9 20 -9 11 0 20 2 20 4 0 2 -9 6 -20 9 -11 3
-20 1 -20 -4z"/>
<path d="M9464 5764 c-18 -14 -18 -15 4 -4 12 6 22 13 22 15 0 8 -5 6 -26 -11z"/>
<path d="M9319 5768 c-5 -9 -5 -48 -1 -43 3 2 11 -3 19 -13 12 -16 13 -16 6 2
-5 15 -3 17 8 11 12 -8 12 -6 0 8 -7 9 -18 14 -24 10 -6 -4 -8 0 -4 10 5 13 1
25 -4 15z"/>
<path d="M9565 5760 c-3 -5 -1 -10 4 -10 6 0 11 5 11 10 0 6 -2 10 -4 10 -3 0
-8 -4 -11 -10z"/>
<path d="M9516 5752 c-4 -6 -13 -9 -21 -5 -8 3 -15 1 -15 -5 0 -14 22 -20 42
-13 12 4 14 11 9 20 -6 9 -11 10 -15 3z"/>
<path d="M5028 5733 c7 -3 16 -2 19 1 4 3 -2 6 -13 5 -11 0 -14 -3 -6 -6z"/>
<path d="M9567 5725 c-11 -8 -26 -11 -35 -7 -14 5 -14 3 1 -13 18 -17 19 -17
40 3 25 25 20 36 -6 17z"/>
<path d="M6900 5574 c0 -8 5 -12 10 -9 6 4 8 11 5 16 -9 14 -15 11 -15 -7z"/>
<path d="M6932 5557 c1 -20 4 -34 7 -32 2 3 10 0 17 -6 16 -13 115 13 134 35
10 13 7 14 -19 6 -36 -10 -67 -6 -87 11 -8 7 -17 9 -21 6 -3 -4 -12 -2 -20 5
-11 9 -13 5 -11 -25z"/>
<path d="M10350 5510 c23 -7 23 -8 6 -15 -16 -7 -17 -10 -4 -19 8 -6 15 -19
15 -28 0 -32 -31 -19 -58 24 l-27 41 -41 -42 c-23 -23 -41 -46 -41 -50 0 -5
-7 -11 -15 -15 -8 -3 -14 -11 -13 -18 2 -7 -3 -12 -9 -11 -7 2 -15 -8 -19 -21
-3 -14 -14 -32 -25 -42 -10 -9 -19 -24 -19 -32 0 -9 -7 -13 -19 -9 -15 3 -17
0 -13 -16 4 -16 2 -19 -11 -14 -11 4 -14 2 -11 -8 8 -21 -28 -55 -53 -51 -21
4 -25 -7 -10 -31 16 -25 -3 -33 -41 -18 l-37 15 28 -25 c26 -23 23 -30 -12
-25 -13 1 -13 -1 -1 -15 7 -9 9 -15 4 -14 -21 4 -26 -2 -14 -16 7 -9 11 -18 8
-20 -9 -9 -113 -12 -125 -3 -8 6 -11 4 -9 -7 1 -9 9 -21 17 -26 8 -5 9 -9 3
-9 -6 0 -19 9 -29 20 -12 13 -22 17 -28 11 -7 -7 -17 -7 -29 0 -12 7 -18 6
-18 -1 0 -7 -6 -8 -19 0 -12 6 -22 6 -25 1 -3 -5 -16 -7 -28 -3 -15 4 -19 2
-13 -7 6 -10 3 -11 -14 -2 -11 7 -21 9 -21 6 0 -3 -9 -1 -20 5 -12 7 -18 16
-13 23 5 9 4 9 -8 0 -9 -7 -20 -9 -29 -3 -8 5 -19 5 -25 0 -8 -6 -12 -5 -12 4
0 8 8 13 18 11 10 -2 23 3 30 11 9 11 15 12 28 2 12 -10 12 -8 -2 8 -22 27
-10 39 17 17 17 -15 17 -13 -2 8 -13 15 -22 31 -20 37 2 5 -1 10 -7 10 -5 0
-9 -4 -7 -9 5 -18 -6 -8 -31 30 -28 43 -24 66 6 29 18 -22 18 -22 8 -1 -16 31
-27 36 -45 17 -15 -14 -16 -14 -12 8 2 13 9 22 15 20 9 -2 9 3 1 18 -10 19 -6
24 13 21 5 -1 6 3 2 9 -9 14 -11 13 -40 -17 -17 -18 -24 -36 -22 -50 2 -13 -3
-29 -14 -39 -11 -10 -20 -13 -20 -8 -1 5 -5 -11 -9 -36 -4 -25 -15 -76 -24
-115 -18 -76 -37 -196 -42 -260 -1 -22 -7 -60 -13 -85 -14 -62 -14 -69 7 -68
30 1 226 -13 242 -17 19 -5 192 -23 295 -30 44 -3 125 -10 180 -15 55 -5 132
-12 170 -15 243 -18 297 -27 374 -61 45 -20 65 -24 104 -19 l48 7 -5 86 c-3
48 -6 141 -7 207 -2 132 -24 329 -58 520 -5 30 -5 55 0 61 7 8 5 11 -3 10 -7
0 -13 4 -13 9 0 6 3 9 6 8 12 -4 -1 31 -21 57 -10 14 -21 22 -24 19 -3 -3 3
-15 14 -27 11 -12 20 -27 20 -34 -1 -7 -20 8 -43 33 -57 63 -80 76 -165 94
-76 16 -116 19 -72 5z m-890 -250 c0 -5 -5 -10 -11 -10 -5 0 -7 5 -4 10 3 6 8
10 11 10 2 0 4 -4 4 -10z m29 -94 c8 -10 8 -16 -2 -24 -10 -9 -13 -6 -13 13 0
29 0 29 15 11z m39 -63 c-6 -7 -7 -13 -3 -13 4 0 2 -7 -5 -15 -10 -12 -16 -12
-34 -3 -11 7 -25 11 -31 9 -5 -1 3 11 19 28 24 25 31 28 47 18 13 -8 15 -15 7
-24z m33 -110 c13 -16 12 -17 -3 -4 -10 7 -18 15 -18 17 0 8 8 3 21 -13z m97
-24 c12 1 22 -1 22 -6 0 -4 34 -7 75 -5 63 3 75 1 75 -12 0 -9 -5 -16 -11 -16
-5 0 -7 6 -3 13 6 9 4 9 -7 2 -8 -6 -31 -11 -52 -10 -31 0 -35 -2 -22 -11 19
-14 10 -21 -25 -18 -14 1 -36 -8 -50 -20 l-25 -21 19 23 c11 12 15 22 10 23
-11 1 -74 8 -91 11 -21 2 -14 17 7 15 11 -1 20 -5 20 -10 0 -4 5 -5 11 -1 8 4
7 9 -2 15 -7 4 -17 5 -21 3 -4 -3 -8 0 -8 6 0 6 -4 9 -9 5 -5 -3 -12 -1 -15 4
-3 5 10 7 30 4 28 -4 34 -2 29 8 -6 8 -4 10 6 3 8 -4 24 -7 37 -5z m150 -54
c4 -5 0 -6 -9 -2 -9 3 -21 1 -26 -4 -7 -7 -12 -5 -16 4 -4 11 1 14 19 12 14
-1 28 -6 32 -10z m-78 -27 c0 -4 8 -5 18 -1 9 3 14 3 10 -1 -10 -12 -58 -14
-58 -3 0 6 -10 2 -22 -9 -23 -19 -23 -19 -6 1 16 20 58 29 58 13z"/>
<path d="M9486 5111 c-17 -18 -17 -20 3 -31 12 -6 21 -9 22 -8 13 50 1 68 -25
39z m24 -1 c0 -5 -5 -10 -11 -10 -5 0 -7 5 -4 10 3 6 8 10 11 10 2 0 4 -4 4
-10z"/>
<path d="M9686 4932 c-3 -5 1 -9 9 -9 8 0 12 4 9 9 -3 4 -7 8 -9 8 -2 0 -6 -4
-9 -8z"/>
<path d="M6801 5475 c-61 -15 -87 -33 -44 -30 15 1 48 11 73 23 52 24 46 25
-29 7z"/>
<path d="M9106 5396 c3 -9 10 -16 16 -16 5 0 7 -3 5 -7 -3 -5 7 -9 21 -9 41
-2 76 -9 91 -19 10 -6 12 -4 6 5 -6 9 0 10 25 5 65 -14 100 -34 101 -58 1 -18
2 -17 9 7 10 32 5 48 -13 44 -17 -3 -57 12 -57 21 0 4 -27 7 -60 6 -33 -1 -60
2 -60 6 0 4 -8 6 -17 4 -10 -1 -24 2 -30 8 -7 5 -13 6 -13 2 0 -4 -7 -2 -15 5
-13 11 -14 10 -9 -4z"/>
<path d="M9780 5346 c0 -2 8 -10 18 -17 15 -13 16 -12 3 4 -13 16 -21 21 -21
13z"/>
<path d="M9015 5321 c-3 -7 3 -11 15 -11 12 0 19 -4 15 -10 -3 -5 -12 -7 -20
-3 -8 3 -15 0 -15 -5 0 -14 15 -23 24 -14 4 4 12 7 17 7 18 0 14 18 -8 32 -14
10 -23 11 -28 4z"/>
<path d="M9395 5320 c-3 -5 -1 -10 4 -10 6 0 11 5 11 10 0 6 -2 10 -4 10 -3 0
-8 -4 -11 -10z"/>
<path d="M10661 5314 c0 -11 3 -14 6 -6 3 7 2 16 -1 19 -3 4 -6 -2 -5 -13z"/>
<path d="M9106 5292 c-3 -5 1 -9 9 -9 8 0 12 4 9 9 -3 4 -7 8 -9 8 -2 0 -6 -4
-9 -8z"/>
<path d="M9070 5276 c0 -2 8 -10 18 -17 15 -13 16 -12 3 4 -13 16 -21 21 -21
13z"/>
<path d="M9120 5266 c0 -2 7 -7 16 -10 8 -3 12 -2 9 4 -6 10 -25 14 -25 6z"/>
<path d="M8136 5205 c-3 -9 -6 -22 -5 -28 0 -7 5 -1 10 12 5 13 8 26 5 28 -2
2 -6 -3 -10 -12z"/>
<path d="M5940 5190 c0 -5 10 -15 23 -21 22 -12 22 -12 3 10 -21 23 -26 26
-26 11z"/>
<path d="M5990 5164 c0 -5 7 -19 15 -30 8 -10 15 -14 15 -8 0 5 -7 19 -15 30
-8 10 -15 14 -15 8z"/>
<path d="M8090 5145 c0 -15 4 -24 10 -20 6 3 10 12 10 20 0 8 -4 17 -10 20 -6
4 -10 -5 -10 -20z"/>
<path d="M9870 5166 c0 -2 8 -10 18 -17 15 -13 16 -12 3 4 -13 16 -21 21 -21
13z"/>
<path d="M8963 5137 c1 -6 -5 -11 -13 -12 -10 0 -15 -10 -14 -28 0 -18 -4 -26
-12 -23 -8 3 -11 -1 -7 -10 5 -13 8 -13 23 1 9 8 21 12 25 8 5 -5 4 -1 -2 7
-9 12 -7 21 7 40 11 14 20 20 20 15 0 -6 -4 -15 -10 -21 -6 -6 -4 -17 6 -32
13 -19 18 -21 31 -10 13 10 20 7 43 -21 20 -25 29 -31 35 -21 5 8 4 11 -3 6
-15 -9 -23 7 -12 24 7 12 13 11 32 -5 l23 -19 -20 22 c-12 12 -31 24 -44 27
-26 5 -51 23 -51 37 0 6 7 8 15 4 8 -3 15 -1 15 4 0 14 -18 21 -25 10 -4 -6
-11 -8 -16 -5 -19 12 -49 13 -46 2z m43 -24 c0 -11 5 -17 13 -15 12 3 12 0 1
-12 -13 -17 -25 -22 -16 -7 3 5 -1 12 -10 15 -13 5 -14 9 -4 21 16 19 18 19
16 -2z m74 -39 c0 -8 -19 -13 -24 -6 -3 5 1 9 9 9 8 0 15 -2 15 -3z"/>
<path d="M8914 5129 c-3 -6 -2 -15 3 -20 5 -5 9 -1 10 11 2 22 -2 25 -13 9z"/>
<path d="M9644 5116 c1 -8 5 -18 8 -22 4 -3 5 1 4 10 -1 8 -5 18 -8 22 -4 3
-5 -1 -4 -10z"/>
<path d="M8030 5090 c0 -5 5 -10 10 -10 6 0 10 5 10 10 0 6 -4 10 -10 10 -5 0
-10 -4 -10 -10z"/>
<path d="M9613 5088 c1 -7 -4 -12 -11 -10 -8 1 -11 -2 -7 -8 5 -8 11 -8 19 -1
9 7 17 7 26 -2 8 -6 6 -2 -4 11 -22 25 -27 27 -23 10z"/>
<path d="M9715 5090 c-4 -6 -10 -8 -14 -6 -4 3 -8 -1 -8 -9 0 -10 4 -12 12 -5
7 5 14 8 17 5 2 -3 5 2 5 10 0 18 -3 19 -12 5z"/>
<path d="M9016 5051 c-4 -5 -2 -12 3 -15 5 -4 12 -2 15 3 4 5 2 12 -3 15 -5 4
-12 2 -15 -3z"/>
<path d="M7966 5032 c-2 -4 -1 -14 5 -22 7 -12 9 -10 9 8 0 23 -5 28 -14 14z"/>
<path d="M6410 5026 c0 -3 9 -10 20 -16 11 -6 20 -8 20 -6 0 3 -9 10 -20 16
-11 6 -20 8 -20 6z"/>
<path d="M5770 5005 c-9 -10 -9 -15 -1 -15 6 0 11 5 11 10 0 6 5 10 11 10 6 0
8 -7 5 -16 -5 -14 -4 -15 9 -4 8 7 12 16 9 21 -8 14 -30 11 -44 -6z"/>
<path d="M7939 4973 c-13 -16 -12 -17 4 -4 16 13 21 21 13 21 -2 0 -10 -8 -17
-17z"/>
<path d="M8957 4950 c7 -8 20 -15 29 -16 9 -1 13 1 9 4 -4 4 -10 7 -13 7 -4 0
-14 4 -22 9 -12 7 -13 6 -3 -4z"/>
<path d="M9021 4944 c0 -11 3 -14 6 -6 3 7 2 16 -1 19 -3 4 -6 -2 -5 -13z"/>
<path d="M7856 4923 c-6 -14 -5 -15 5 -6 7 7 10 15 7 18 -3 3 -9 -2 -12 -12z"/>
<path d="M9115 4929 c3 -4 13 -6 23 -5 9 2 21 -2 25 -8 6 -7 7 -6 5 4 -3 8
-16 15 -31 15 -14 1 -24 -2 -22 -6z"/>
<path d="M9203 4906 c-3 -6 -3 -8 2 -4 4 4 16 3 26 -2 12 -7 20 -6 25 2 4 7 3
8 -4 4 -7 -4 -12 -3 -12 2 0 12 -30 11 -37 -2z"/>
<path d="M9265 4891 c-3 -5 -1 -12 5 -16 5 -3 10 1 10 9 0 18 -6 21 -15 7z"/>
<path d="M5993 4715 c0 -8 4 -12 9 -9 5 3 6 10 3 15 -9 13 -12 11 -12 -6z"/>
<path d="M9065 4701 c3 -2 -1 -11 -8 -19 -10 -13 -9 -14 10 -4 30 16 35 28 13
28 -11 0 -17 -2 -15 -5z"/>
<path d="M9116 4701 c-4 -5 -2 -12 4 -16 6 -4 8 -11 5 -16 -4 -5 -2 -9 4 -9 5
0 13 5 16 10 4 6 11 7 17 4 7 -4 8 -2 4 4 -4 6 -14 8 -23 5 -10 -4 -14 -2 -9
5 3 6 2 13 -3 16 -5 4 -12 2 -15 -3z"/>
<path d="M6116 4672 c-2 -4 4 -13 15 -20 11 -7 19 -8 19 -2 0 5 -5 10 -11 10
-5 0 -7 5 -4 10 3 6 2 10 -4 10 -5 0 -12 -4 -15 -8z"/>
<path d="M6225 4610 c-3 -5 -1 -10 4 -10 6 0 11 5 11 10 0 6 -2 10 -4 10 -3 0
-8 -4 -11 -10z"/>
<path d="M2190 4560 c0 -5 5 -10 11 -10 5 0 7 5 4 10 -3 6 -8 10 -11 10 -2 0
-4 -4 -4 -10z"/>
<path d="M6472 4480 c0 -14 2 -19 5 -12 2 6 2 18 0 25 -3 6 -5 1 -5 -13z"/>
<path d="M7066 4473 c-6 -14 -5 -15 5 -6 7 7 10 15 7 18 -3 3 -9 -2 -12 -12z"/>
<path d="M3026 2784 c-14 -14 -16 -150 -16 -1353 0 -1283 1 -1339 18 -1354 17
-16 146 -17 1645 -17 l1626 0 15 22 c14 20 16 164 16 1348 0 1184 -2 1328 -16
1348 l-15 22 -1629 0 c-1467 0 -1630 -2 -1644 -16z m2945 -124 c19 -10 19 -30
19 -828 0 -623 -3 -821 -12 -830 -17 -17 -2599 -17 -2616 0 -9 9 -12 206 -12
824 0 725 2 814 16 828 14 14 146 16 1300 16 867 0 1292 -3 1305 -10z m-851
-1800 c-20 -13 -33 -13 -25 0 3 6 14 10 23 10 15 0 15 -2 2 -10z m-380 -31 c0
-5 -10 -9 -22 -10 -22 0 -22 -1 -3 -9 30 -13 35 -12 35 10 0 11 7 20 15 20 11
0 15 -11 15 -39 l0 -38 -50 -2 c-27 0 -50 4 -50 9 0 6 10 10 23 11 l22 0 -21
9 c-27 10 -35 22 -26 36 14 22 62 24 62 3z m225 -30 c0 -30 -3 -34 -28 -37
-53 -6 -77 43 -36 72 34 23 64 6 64 -35z m-725 29 c0 -9 3 -9 12 0 7 7 19 12
27 12 12 0 12 -3 -2 -17 -13 -15 -13 -21 -2 -36 12 -17 14 -16 26 17 17 46 40
46 61 -2 l16 -37 1 38 c1 38 16 48 39 25 9 -9 12 -9 12 0 0 7 7 12 15 12 10 0
15 -11 16 -37 l1 -38 16 37 c10 21 24 38 32 38 8 0 22 -17 32 -38 l16 -37 1
38 c1 38 1 38 39 35 29 -2 37 -7 37 -22 0 -10 -9 -24 -20 -30 -11 -6 -22 -14
-25 -17 -3 -4 -39 -6 -80 -6 -57 0 -78 4 -87 16 -11 15 -12 15 -13 -1 0 -14
-12 -16 -72 -15 -40 0 -79 5 -85 10 -9 6 -13 6 -13 -2 0 -6 -7 -11 -15 -11
-11 0 -15 11 -15 40 0 29 4 40 15 40 8 0 15 -5 15 -12z m588 0 c9 -9 12 -9 12
0 0 7 7 12 15 12 11 0 15 -11 15 -40 0 -43 -14 -52 -36 -22 -13 16 -13 16 -14
0 0 -10 -7 -18 -15 -18 -11 0 -15 11 -15 40 0 41 14 52 38 28z m302 1 c0 -5
-10 -10 -22 -10 l-23 -2 23 -4 c12 -2 22 -9 22 -14 0 -5 -10 -10 -22 -10 l-23
-2 23 -4 c35 -7 26 -23 -13 -23 -28 0 -35 4 -35 19 0 17 -3 18 -25 8 -14 -7
-25 -15 -25 -19 0 -5 -7 -8 -15 -8 -11 0 -15 11 -15 39 l0 40 75 0 c41 0 75
-4 75 -10z m-1455 -372 c22 -1 46 -6 54 -11 10 -7 12 -6 6 4 -5 8 -3 11 5 8
21 -7 24 -28 3 -29 -16 0 -16 -1 2 -8 11 -5 -21 -8 -78 -9 -94 -1 -97 0 -97
22 0 31 10 39 40 31 14 -3 43 -7 65 -8z m170 -22 c0 -14 -2 -25 -6 -25 -8 0
-18 48 -11 55 9 8 15 -4 17 -30z m235 27 c0 -5 10 -8 23 -8 17 1 22 -5 24 -24
1 -14 0 -18 -3 -7 -7 21 -24 23 -24 2 0 -11 -11 -15 -42 -15 -28 0 -38 3 -29
9 11 7 11 9 0 13 -7 2 -9 9 -5 16 5 8 16 10 28 6 14 -4 18 -2 14 5 -4 6 -2 11
3 11 6 0 11 -4 11 -8z m85 -27 c1 -27 -12 -34 -21 -10 -7 18 4 51 13 41 4 -3
7 -17 8 -31z m400 0 c1 -27 -12 -34 -21 -10 -7 18 4 51 13 41 4 -3 7 -17 8
-31z m228 20 c31 21 37 19 37 -15 0 -25 -4 -30 -25 -30 -14 0 -25 6 -25 13 0
7 -3 8 -8 2 -4 -5 -16 -12 -27 -13 -11 -2 -21 -8 -23 -13 -8 -20 -22 -7 -22
20 0 32 24 48 46 30 11 -9 14 -7 15 7 1 17 2 17 6 1 4 -15 6 -16 26 -2z m110
-14 c-4 -15 1 -18 23 -18 22 0 24 1 10 9 -18 10 -13 28 10 28 8 0 14 -10 14
-25 0 -22 -4 -25 -34 -25 -28 0 -34 4 -38 25 -5 26 0 38 12 30 5 -3 6 -13 3
-24z m89 11 c-16 -5 -15 -29 1 -35 7 -3 5 -6 -5 -6 -13 -1 -18 7 -18 29 0 24
3 28 17 23 11 -4 12 -8 5 -11z m-1174 -19 c3 -17 -2 -23 -16 -23 -11 0 -23 -6
-25 -12 -3 -7 -6 3 -6 23 -1 31 2 36 22 35 15 -1 23 -8 25 -23z m80 9 c2 -7
-5 -12 -15 -13 -16 0 -16 -1 2 -9 19 -8 19 -9 -2 -9 -28 -1 -38 15 -22 35 13
16 31 14 37 -4z m32 -22 c4 0 10 8 12 18 3 10 15 18 27 19 17 1 21 -2 17 -13
-3 -9 -6 -20 -6 -25 0 -5 -16 -9 -35 -9 -32 0 -35 2 -34 28 2 23 2 24 6 5 2
-13 8 -23 13 -23z m305 30 c5 -8 11 -7 21 1 10 8 18 9 27 0 8 -6 17 -8 21 -4
11 12 76 13 76 2 0 -6 6 -7 13 -2 6 4 40 8 75 9 58 1 62 0 62 -22 l0 -23 -165
1 c-91 0 -168 5 -171 10 -6 10 13 38 27 38 4 0 11 -5 14 -10z m425 -12 c0 -26
18 -22 23 5 4 19 4 19 6 -5 1 -25 -2 -26 -44 -26 -48 0 -64 11 -46 32 17 20
61 15 61 -6z m218 -6 c3 -17 -2 -22 -17 -22 -16 0 -21 6 -21 26 0 33 33 30 38
-4z m1036 -52 c20 -7 26 -17 26 -38 0 -15 -5 -33 -12 -40 -17 -17 -709 -17
-726 0 -21 21 -15 68 11 78 30 12 669 13 701 0z m-1924 -20 c0 -6 9 -6 25 0
23 9 25 7 25 -19 0 -28 -1 -29 -59 -29 -53 0 -60 3 -64 22 -3 20 -4 20 -15 -4
l-11 -25 0 27 c-1 23 3 27 29 26 17 -1 33 -5 36 -10 3 -4 10 -6 15 -2 5 3 7
10 4 15 -4 5 -1 9 4 9 6 0 11 -4 11 -10z m192 -8 c-20 -6 -13 -32 8 -32 11 0
20 -5 20 -11 0 -6 -7 -8 -16 -5 -9 3 -20 6 -25 6 -5 0 -9 13 -9 30 0 24 3 28
17 23 11 -4 12 -8 5 -11z m221 -8 c-3 -9 0 -20 8 -25 11 -7 11 -9 -2 -9 -16 0
-32 43 -21 54 10 10 21 -5 15 -20z m57 -4 c0 -16 -5 -30 -10 -30 -6 0 -9 14
-8 30 1 17 6 30 10 30 4 0 8 -13 8 -30z m197 -17 c-3 -10 -5 -2 -5 17 0 19 2
27 5 18 2 -10 2 -26 0 -35z m273 17 c0 -28 -3 -30 -35 -30 -32 0 -35 2 -34 28
2 23 2 24 6 5 5 -28 23 -30 23 -3 0 14 5 18 17 13 11 -4 14 -3 9 5 -4 7 -2 12
3 12 6 0 11 -13 11 -30z m-1243 -10 l3 -25 -12 25 c-11 25 -11 25 -15 3 -5
-27 -23 -31 -23 -5 0 41 44 42 47 2z m48 20 c5 -8 11 -7 21 1 20 16 44 4 43
-23 0 -23 0 -23 -11 2 -11 24 -12 24 -15 4 -5 -28 -73 -33 -73 -5 0 29 22 42
35 21z m143 -17 c3 -17 -2 -23 -16 -23 -11 0 -23 -6 -25 -12 -3 -7 -6 3 -6 23
-1 31 2 36 22 35 15 -1 23 -8 25 -23z m269 -3 l3 -25 -12 25 c-11 25 -11 25
-15 3 -4 -22 -23 -33 -23 -13 0 6 -10 10 -22 9 -22 0 -22 -1 -3 -9 16 -7 17
-9 3 -9 -20 -1 -32 15 -25 34 4 9 20 13 49 12 38 -2 43 -5 45 -27z m143 8 c0
-26 18 -22 23 5 4 19 4 19 6 -5 1 -25 -1 -26 -46 -26 -27 0 -42 3 -34 5 10 4
11 7 1 13 -19 12 -2 30 25 28 17 -2 25 -8 25 -20z m87 -8 l3 -25 -12 25 c-11
25 -11 25 -15 3 -5 -27 -23 -31 -23 -5 0 41 44 42 47 2z m137 14 c9 -22 7 -34
-3 -34 -5 0 -11 10 -14 23 -4 22 -4 22 -15 -3 l-11 -25 0 28 c-1 20 4 27 18
27 10 0 22 -7 25 -16z m87 6 c5 0 9 -7 9 -15 0 -23 18 -18 23 8 4 19 4 19 6
-5 1 -25 -2 -26 -45 -26 -31 0 -47 4 -51 15 -7 17 16 35 35 28 8 -3 18 -5 23
-5z m114 0 c5 -8 11 -7 20 0 18 15 35 4 35 -20 0 -16 -7 -19 -37 -18 -20 1
-39 -4 -41 -10 -7 -23 -22 -12 -22 17 0 34 30 55 45 31z m135 -24 c0 -33 -1
-34 -25 -23 -37 18 -33 57 7 57 14 0 18 -8 18 -34z m-1147 -55 c4 -1 7 -8 7
-17 0 -13 3 -14 14 -5 7 6 22 8 31 4 13 -4 16 -3 11 5 -4 7 -2 12 3 12 6 0 11
-14 11 -30 0 -29 -1 -30 -45 -28 -38 1 -45 4 -46 22 -1 18 -2 18 -9 -4 -8 -24
-8 -24 -9 -2 -1 12 -5 22 -11 22 -5 0 -10 -10 -11 -22 -1 -22 -1 -22 -8 2 -10
31 2 47 31 44 13 -1 26 -3 31 -3z m207 -9 c0 -5 20 -7 45 -6 25 2 45 -1 45 -7
0 -6 -5 -7 -12 -3 -7 5 -8 3 -4 -5 6 -9 12 -8 26 4 10 9 24 14 29 10 17 -10
13 -25 -6 -26 -15 0 -15 -2 2 -9 12 -4 -17 -8 -77 -8 -105 -1 -126 9 -88 40
24 19 40 23 40 10z m315 -27 c0 -14 -2 -25 -6 -25 -8 0 -18 48 -11 55 9 8 15
-4 17 -30z m215 6 c0 -28 -2 -29 -45 -29 -37 0 -45 3 -45 18 0 25 17 35 35 20
12 -10 15 -9 15 4 0 9 8 16 20 16 15 0 20 -7 20 -29z m58 14 c3 -3 0 -5 -6 -5
-16 0 -15 -27 1 -33 7 -3 5 -6 -5 -6 -12 -1 -18 7 -19 22 -1 21 -1 21 -9 -3
-8 -24 -8 -24 -9 7 -1 27 2 31 20 28 12 -3 24 -7 27 -10z m152 7 c0 -5 17 -7
37 -5 36 2 53 -8 53 -34 0 -22 -18 -14 -23 10 -4 22 -4 22 -15 -3 -8 -18 -11
-20 -11 -7 -1 21 -21 23 -21 2 0 -8 -9 -15 -20 -15 -16 0 -20 6 -18 30 1 17 6
30 10 30 4 0 8 -4 8 -8z m153 -7 c31 21 37 19 37 -15 0 -25 -4 -30 -25 -30
-14 0 -25 6 -25 13 0 8 -4 7 -10 -3 -7 -11 -9 -6 -9 20 1 19 3 27 6 17 4 -15
6 -16 26 -2z m179 -3 c-27 -9 -11 -31 26 -34 20 -2 -2 -5 -50 -6 -86 -1 -112
8 -89 31 19 19 79 18 84 -1 3 -12 5 -11 6 5 1 17 5 21 18 16 11 -4 12 -8 5
-11z m-1354 -20 c3 -17 -2 -22 -18 -22 -25 0 -38 29 -19 41 20 13 34 6 37 -19z
m200 0 c3 -17 -2 -22 -17 -22 -16 0 -21 6 -21 26 0 33 33 30 38 -4z m272 8 c0
-11 5 -20 10 -20 6 0 10 6 10 14 0 8 5 18 10 21 6 4 10 -5 10 -19 0 -21 -5
-26 -24 -26 -18 0 -26 6 -29 23 -4 22 -4 22 -15 -3 l-11 -25 0 28 c-1 21 4 27
19 27 13 0 20 -7 20 -20z m94 4 c9 -22 7 -34 -3 -34 -5 0 -11 10 -14 23 -4 22
-4 22 -15 -3 l-11 -25 0 28 c-1 20 4 27 18 27 10 0 22 -7 25 -16z m143 -14 c1
-15 0 -18 -3 -7 -7 21 -24 23 -24 2 0 -24 -18 -18 -23 8 -4 22 -4 22 -15 -3
l-11 -25 0 28 c-1 26 1 27 37 24 31 -2 37 -6 39 -27z m280 0 c1 -14 0 -18 -3
-7 -7 21 -24 23 -24 2 0 -10 -10 -15 -30 -15 -25 0 -30 4 -30 24 0 22 4 24 43
23 37 -2 42 -5 44 -27z"/>
<path d="M3820 2210 c-6 -12 -16 -64 -22 -115 -6 -52 -15 -93 -21 -92 -5 1
-12 -4 -14 -10 -3 -7 0 -13 6 -13 6 0 11 -13 11 -29 0 -16 6 -31 13 -34 8 -3
0 -16 -21 -36 l-34 -31 7 -78 c11 -116 41 -236 84 -327 38 -81 68 -115 104
-115 30 0 29 -22 -3 -140 -17 -62 -29 -119 -26 -127 6 -15 42 -18 51 -3 3 6
-1 7 -9 4 -11 -4 -16 0 -16 11 0 16 24 111 37 145 3 8 7 28 9 45 3 16 9 34 14
39 18 18 24 -4 14 -53 -10 -47 -10 -48 16 -47 21 1 27 8 38 46 8 25 15 51 18
58 3 9 135 12 617 12 l614 0 16 -60 c14 -48 21 -60 37 -60 11 0 20 6 21 13 0
6 5 -4 10 -23 40 -144 38 -140 67 -139 18 1 21 3 9 6 -11 3 -16 11 -13 19 3 8
-1 14 -8 14 -9 0 -12 7 -9 20 3 13 0 20 -8 20 -10 0 -10 3 -2 11 8 8 5 28 -11
73 -12 33 -21 68 -20 76 1 8 2 21 3 28 0 7 5 11 10 8 22 -14 77 42 112 114 52
106 73 212 65 323 -7 99 -25 149 -61 165 -14 7 -25 16 -25 22 0 7 7 4 16 -4
12 -12 20 -13 35 -6 22 12 25 66 9 189 -12 94 -21 104 -79 98 -42 -4 -86 -13
-86 -17 0 -4 -44 -11 -95 -17 -49 -5 -1091 -7 -1233 -2 -32 1 -60 6 -63 10 -2
4 -11 6 -19 2 -8 -3 -15 -1 -15 5 0 6 -9 8 -20 5 -11 -3 -20 -1 -20 4 0 5 -22
10 -49 12 -42 2 -52 -2 -61 -19z m1340 -142 c9 -12 132 -27 212 -25 48 1 73
-2 68 -7 -5 -5 -63 -10 -128 -10 -100 -1 -124 2 -155 19 -20 11 -37 23 -37 26
0 9 33 6 40 -3z m375 -18 c-3 -5 -16 -10 -28 -9 -21 0 -21 1 -2 9 28 12 37 12
30 0z m-1331 -45 c4 -14 18 -51 32 -83 36 -78 36 -79 23 -60 -12 15 -14 15
-38 0 -22 -15 -44 -20 -86 -22 -47 -2 -69 15 -118 90 -20 30 -32 37 -87 49
l-65 15 55 7 c30 4 84 10 119 14 35 4 74 10 86 15 13 5 26 6 29 3 3 -4 6 -1 6
6 0 22 37 -7 44 -34z m77 -182 c13 -16 12 -17 -3 -4 -17 13 -22 21 -14 21 2 0
10 -8 17 -17z m914 -222 c20 -9 25 -15 15 -18 -8 -3 -22 -7 -30 -10 -45 -17
-143 -23 -405 -23 -179 -1 -548 6 -580 10 -5 1 -20 -1 -32 -4 -15 -3 -23 0
-23 8 0 47 88 55 590 52 335 -1 442 -5 465 -15z m179 -346 c5 -20 4 -27 -3
-20 -5 6 -12 28 -15 50 -7 43 5 24 18 -30z"/>
<path d="M4910 800 c0 -15 5 -20 18 -18 9 2 17 10 17 18 0 8 -8 16 -17 18 -13
2 -18 -3 -18 -18z"/>
<path d="M4590 810 c0 -5 5 -10 10 -10 6 0 10 5 10 10 0 6 -4 10 -10 10 -5 0
-10 -4 -10 -10z"/>
<path d="M5010 810 c0 -5 5 -10 10 -10 6 0 10 5 10 10 0 6 -4 10 -10 10 -5 0
-10 -4 -10 -10z"/>
<path d="M3600 450 c13 -9 13 -11 0 -20 -12 -8 -11 -10 6 -10 11 0 24 3 27 7
10 9 -13 33 -32 33 -14 0 -14 -2 -1 -10z"/>
<path d="M3661 434 c0 -11 3 -14 6 -6 3 7 2 16 -1 19 -3 4 -6 -2 -5 -13z"/>
<path d="M3686 443 c-11 -11 -6 -23 9 -23 8 0 15 4 15 9 0 13 -16 22 -24 14z"/>
<path d="M4030 446 c0 -2 7 -7 16 -10 8 -3 12 -2 9 4 -6 10 -25 14 -25 6z"/>
<path d="M4720 436 c0 -9 5 -16 10 -16 6 0 10 4 10 9 0 6 -4 13 -10 16 -5 3
-10 -1 -10 -9z"/>
<path d="M4796 441 c-4 -7 -5 -15 -2 -18 9 -9 19 4 14 18 -4 11 -6 11 -12 0z"/>
<path d="M3786 442 c-3 -6 -1 -14 5 -17 15 -10 25 3 12 16 -7 7 -13 7 -17 1z"/>
<path d="M4266 443 c-11 -11 -6 -23 9 -23 8 0 15 4 15 9 0 13 -16 22 -24 14z"/>
<path d="M4455 440 c-3 -5 -2 -11 2 -13 9 -5 63 -6 63 -2 0 9 -60 22 -65 15z"/>
<path d="M4210 430 c0 -5 5 -10 10 -10 6 0 10 5 10 10 0 6 -4 10 -10 10 -5 0
-10 -4 -10 -10z"/>
<path d="M4310 430 c0 -5 6 -10 14 -10 8 0 18 5 21 10 3 6 -3 10 -14 10 -12 0
-21 -4 -21 -10z"/>
<path d="M4418 423 c7 -3 16 -2 19 1 4 3 -2 6 -13 5 -11 0 -14 -3 -6 -6z"/>
<path d="M4610 430 c0 -5 7 -10 15 -10 8 0 15 5 15 10 0 6 -7 10 -15 10 -8 0
-15 -4 -15 -10z"/>
<path d="M3936 341 c-4 -7 -5 -15 -2 -18 9 -9 19 4 14 18 -4 11 -6 11 -12 0z"/>
<path d="M4006 342 c-3 -6 -1 -14 5 -17 15 -10 25 3 12 16 -7 7 -13 7 -17 1z"/>
<path d="M3716 341 c-4 -7 -5 -15 -2 -18 9 -9 19 4 14 18 -4 11 -6 11 -12 0z"/>
<path d="M3846 342 c-3 -6 -1 -14 5 -17 15 -10 25 3 12 16 -7 7 -13 7 -17 1z"/>
<path d="M4556 343 c-3 -3 -3 -10 0 -14 7 -12 34 -11 34 0 0 11 -26 22 -34 14z"/>
<path d="M4690 336 c0 -9 5 -16 10 -16 6 0 10 4 10 9 0 6 -4 13 -10 16 -5 3
-10 -1 -10 -9z"/>
<path d="M4816 341 c-4 -7 -5 -15 -2 -18 9 -9 19 4 14 18 -4 11 -6 11 -12 0z"/>
<path d="M3730 230 c0 -5 7 -10 15 -10 8 0 15 5 15 10 0 6 -7 10 -15 10 -8 0
-15 -4 -15 -10z"/>
<path d="M3870 230 c0 -5 5 -10 10 -10 6 0 10 5 10 10 0 6 -4 10 -10 10 -5 0
-10 -4 -10 -10z"/>
<path d="M3943 223 c9 -2 23 -2 30 0 6 3 -1 5 -18 5 -16 0 -22 -2 -12 -5z"/>
<path d="M4366 241 c-4 -7 -5 -15 -2 -18 9 -9 19 4 14 18 -4 11 -6 11 -12 0z"/>
<path d="M4806 241 c-4 -7 -5 -15 -2 -18 9 -9 19 4 14 18 -4 11 -6 11 -12 0z"/>
<path d="M4893 223 c9 -2 25 -2 35 0 9 3 1 5 -18 5 -19 0 -27 -2 -17 -5z"/>
<path d="M3596 242 c-3 -6 -1 -14 5 -17 15 -10 25 3 12 16 -7 7 -13 7 -17 1z"/>
<path d="M7066 2778 c-14 -20 -16 -164 -16 -1348 0 -1184 2 -1328 16 -1348
l15 -22 1628 0 c1564 0 1629 1 1644 18 16 17 17 125 17 1355 0 1201 -2 1337
-16 1351 -14 14 -177 16 -1644 16 l-1629 0 -15 -22z m2950 -122 c19 -14 19
-34 19 -824 0 -671 -2 -812 -14 -825 -12 -16 -116 -17 -1310 -17 -995 0 -1300
3 -1309 12 -9 9 -12 206 -12 824 l0 813 22 15 c20 14 160 16 1303 16 1091 0
1284 -2 1301 -14z m-996 -1796 c13 -8 13 -10 -2 -10 -9 0 -20 5 -23 10 -8 13
5 13 25 0z m-234 -36 c10 -13 12 -12 18 1 3 9 18 15 36 15 27 0 30 -3 30 -30
0 -23 4 -30 20 -30 16 0 20 7 20 30 0 20 5 30 15 30 10 0 15 -10 15 -30 0 -23
4 -30 20 -30 16 0 20 7 20 30 0 28 3 30 35 30 38 0 49 -19 13 -21 -17 -1 -19
-2 -5 -6 9 -2 17 -8 17 -13 0 -5 -8 -11 -17 -13 -14 -4 -12 -5 5 -6 12 0 22
-5 22 -11 0 -6 -42 -10 -105 -10 l-105 0 0 38 c-1 35 -2 36 -15 18 -8 -11 -15
-28 -15 -38 0 -30 -27 -20 -34 13 -5 27 -9 30 -38 27 -38 -3 -47 -33 -11 -33
35 -1 32 -20 -4 -23 -53 -5 -70 59 -20 77 27 10 69 2 83 -15z m-546 4 c0 -9 3
-9 12 0 7 7 19 12 27 12 12 0 12 -3 -2 -17 -13 -15 -13 -21 -2 -36 12 -17 14
-16 26 17 17 46 40 46 61 -2 l16 -37 1 38 c1 38 16 48 39 25 9 -9 12 -9 12 0
0 7 7 12 15 12 10 0 15 -11 16 -37 l1 -38 16 37 c10 21 24 38 32 38 8 0 22
-17 32 -38 l16 -37 1 38 c1 38 1 38 39 35 29 -2 37 -7 37 -22 0 -10 -9 -24
-20 -30 -11 -6 -22 -14 -25 -17 -3 -4 -39 -6 -80 -6 -57 0 -78 4 -87 16 -11
15 -12 15 -13 -1 0 -14 -12 -16 -72 -15 -40 0 -79 5 -85 10 -9 6 -13 6 -13 -2
0 -6 -7 -11 -15 -11 -11 0 -15 11 -15 40 0 29 4 40 15 40 8 0 15 -5 15 -12z
m856 -5 c13 -17 13 -17 14 0 0 9 7 17 15 17 11 0 15 -11 15 -40 0 -43 -12 -50
-42 -23 -17 15 -18 15 -18 0 0 -10 -4 -17 -10 -17 -5 0 -10 18 -10 40 0 43 14
52 36 23z m124 7 c0 -5 -10 -11 -22 -11 -17 -1 -19 -2 -5 -6 9 -2 17 -8 17
-13 0 -5 -8 -11 -17 -13 -14 -4 -12 -5 5 -6 36 -2 25 -21 -13 -21 -34 0 -35 1
-35 40 0 39 1 40 35 40 19 0 35 -4 35 -10z m-1605 -374 c13 18 14 17 15 -16 0
-19 -4 -30 -8 -25 -4 6 -14 10 -22 10 -8 0 -18 -4 -22 -10 -4 -5 -8 6 -8 25 1
33 2 34 15 16 15 -20 15 -20 30 0z m163 -25 c5 -31 -45 -30 -51 2 -4 22 -4 22
-15 -3 l-11 -25 0 27 c-1 17 5 28 17 30 28 7 57 -8 60 -31z m19 -8 c-3 -10 -5
-2 -5 17 0 19 2 27 5 18 2 -10 2 -26 0 -35z m356 21 c-3 -9 0 -20 8 -25 11 -7
11 -9 -2 -9 -16 0 -32 43 -21 54 10 10 21 -5 15 -20z m107 -4 c0 -28 -3 -30
-35 -30 -30 0 -34 3 -32 22 4 26 26 36 38 17 7 -11 9 -10 9 4 0 9 5 17 10 17
6 0 10 -13 10 -30z m34 8 c12 20 66 11 66 -10 0 -26 18 -22 23 5 4 18 5 17 6
-7 1 -25 -2 -28 -24 -24 -16 4 -25 1 -25 -7 0 -10 -5 -11 -25 -2 -14 7 -25 17
-25 22 0 6 -5 3 -10 -5 -7 -11 -10 -6 -9 20 0 27 2 30 8 16 5 -14 10 -16 15
-8z m443 -25 c-3 -10 -5 -2 -5 17 0 19 2 27 5 18 2 -10 2 -26 0 -35z m67 14
c1 -15 -2 -27 -6 -27 -4 0 -8 9 -8 20 0 11 -5 20 -11 20 -6 0 -9 -9 -6 -20 6
-23 -11 -27 -19 -5 -10 24 2 42 27 40 17 -1 23 -8 23 -28z m44 -16 c11 0 12 3
5 6 -18 7 -16 33 2 33 8 0 15 -4 15 -9 0 -5 3 -16 6 -25 5 -13 -1 -16 -25 -16
-29 0 -31 2 -30 33 2 30 2 30 6 5 3 -18 10 -28 21 -27z m-1160 11 c3 -17 -2
-22 -18 -22 -25 0 -38 29 -19 41 20 13 34 6 37 -19z m187 18 c5 -8 11 -7 21 1
11 9 18 9 26 1 9 -9 15 -9 25 0 10 8 17 8 26 -1 9 -10 9 -12 -2 -9 -21 5 -25
-20 -4 -25 14 -4 13 -5 -4 -6 -13 0 -23 4 -23 9 0 6 -10 10 -22 9 -22 0 -22
-1 -3 -9 16 -7 12 -8 -17 -8 -29 1 -38 6 -41 22 -3 20 -4 20 -15 -4 l-11 -25
0 28 c-1 20 4 27 18 27 11 0 23 -5 26 -10z m173 -8 c2 -7 -5 -12 -15 -13 -16
0 -16 -1 2 -9 19 -8 19 -9 -2 -9 -28 -1 -38 15 -22 35 13 16 31 14 37 -4z m80
-9 c3 -18 -2 -23 -17 -23 -12 0 -21 6 -21 15 0 21 -18 19 -23 -2 -3 -11 -5 -7
-6 10 -1 26 2 28 32 25 24 -2 33 -8 35 -25z m312 2 c0 -18 -5 -25 -20 -25 -18
0 -21 13 -11 48 1 1 8 2 16 2 9 0 15 -9 15 -25z m87 -5 c1 -15 0 -18 -3 -7 -3
9 -10 17 -15 17 -5 0 -9 -8 -10 -17 0 -13 -3 -11 -11 7 -11 25 -11 25 -15 3
-5 -27 -23 -31 -23 -5 0 26 9 32 44 29 25 -2 31 -7 33 -27z m83 15 c0 -8 2
-15 4 -15 2 0 13 -3 23 -6 17 -5 17 -5 0 6 -19 12 -14 30 9 30 8 0 14 -10 14
-25 0 -23 -4 -25 -42 -25 -32 0 -39 3 -28 10 10 6 11 10 3 10 -7 0 -13 7 -13
15 0 8 7 15 15 15 8 0 15 -7 15 -15z m108 -17 c-2 -24 -8 -34 -23 -35 l-20 -3
20 9 c16 8 17 10 3 10 -37 2 -35 51 2 51 18 0 21 -5 18 -32z m212 -8 c5 0 11
10 13 23 4 19 4 18 6 -5 1 -22 -4 -28 -18 -28 -25 0 -35 16 -25 38 6 15 8 14
11 -5 3 -13 8 -23 13 -23z m107 10 l3 -25 -12 25 c-11 25 -11 25 -15 3 -3 -13
-8 -23 -13 -23 -5 0 -10 10 -13 23 -4 22 -4 22 -15 -3 l-11 -25 0 27 c-1 25 2
27 37 25 32 -2 37 -6 39 -27z m51 2 c3 -17 -2 -22 -17 -22 -14 0 -21 6 -21 18
0 38 33 41 38 4z m865 -51 c32 -13 41 -39 22 -67 l-15 -24 -346 0 c-219 0
-352 4 -365 10 -26 14 -24 55 3 74 19 14 70 16 350 16 179 0 338 -4 351 -9z
m-2096 -58 c-3 -10 -5 -2 -5 17 0 19 2 27 5 18 2 -10 2 -26 0 -35z m266 21
c-3 -9 0 -20 8 -25 11 -7 11 -9 -2 -9 -16 0 -32 43 -21 54 10 10 21 -5 15 -20z
m57 15 c0 -5 5 -7 10 -4 6 3 10 -3 10 -14 0 -28 18 -27 23 2 4 18 5 17 6 -7 1
-25 -2 -28 -23 -24 -15 3 -27 0 -30 -8 -11 -29 -24 -13 -16 20 4 19 5 37 2 40
-3 4 0 6 6 6 7 0 12 -5 12 -11z m155 -4 c13 0 21 -8 23 -21 3 -20 -1 -22 -59
-22 -34 0 -56 4 -49 8 10 6 9 9 -1 12 -7 2 -9 9 -5 17 5 7 14 10 22 7 7 -3 16
-1 19 5 4 5 12 6 18 2 7 -5 21 -8 32 -8z m148 -16 c-2 -21 -2 -22 6 -4 5 11 7
23 4 28 -2 4 1 7 6 7 6 0 11 -13 11 -29 0 -28 -2 -29 -50 -29 -49 -1 -50 0
-50 29 0 29 2 30 38 27 32 -4 37 -7 35 -29z m247 1 c0 -26 -4 -30 -27 -30 -22
0 -25 2 -13 10 10 6 11 10 3 10 -7 0 -13 7 -13 15 0 21 28 19 33 -2 4 -14 5
-12 6 5 2 33 11 27 11 -8z m35 -5 c1 -27 -12 -34 -21 -10 -7 18 4 51 13 41 4
-3 7 -17 8 -31z m238 9 c-3 -9 0 -20 8 -25 11 -7 11 -9 -2 -9 -16 0 -32 43
-21 54 10 10 21 -5 15 -20z m-1318 6 c5 -8 11 -7 21 1 11 9 17 9 29 -1 11 -9
15 -10 15 -1 0 23 45 7 48 -16 2 -13 -1 -23 -7 -23 -5 0 -12 10 -14 23 -4 22
-5 22 -11 1 -6 -16 -16 -21 -46 -21 -30 0 -40 5 -46 21 -6 21 -7 21 -11 -1 -5
-27 -23 -31 -23 -5 0 31 31 45 45 22z m223 -18 c3 -17 -2 -22 -17 -22 -14 0
-21 6 -21 18 0 38 33 41 38 4z m47 18 c4 -7 11 -7 18 -2 18 14 120 9 125 -5 2
-7 -5 -13 -15 -14 -16 0 -16 -1 2 -9 19 -8 19 -9 -2 -9 -12 -1 -25 4 -28 9 -3
6 -14 10 -23 9 -14 0 -13 -2 3 -9 19 -8 19 -9 -2 -9 -12 -1 -27 7 -32 17 -9
14 -10 15 -11 1 0 -24 -70 -25 -70 0 0 29 22 42 35 21z m603 -18 c3 -17 -2
-22 -17 -22 -16 0 -21 6 -21 26 0 33 33 30 38 -4z m60 1 c2 -13 -1 -23 -7 -23
-5 0 -11 10 -14 23 -4 22 -4 22 -15 -3 l-11 -25 0 28 c-1 24 3 28 22 25 14 -2
23 -11 25 -25z m30 -1 c5 -31 -15 -27 -21 3 -3 16 0 24 7 22 6 -2 12 -13 14
-25z m190 0 c3 -17 -2 -22 -17 -22 -14 0 -21 6 -21 18 0 38 33 41 38 4z m60 1
c2 -13 -1 -23 -7 -23 -5 0 -11 10 -14 23 -4 22 -4 22 -15 -3 l-11 -25 0 28
c-1 24 3 28 22 25 14 -2 23 -11 25 -25z m27 17 c5 -8 11 -7 20 0 15 12 35 6
35 -11 0 -5 -8 -9 -17 -10 -15 0 -15 -2 2 -9 16 -7 12 -8 -17 -8 -30 1 -37 5
-41 25 -4 24 7 31 18 13z m-1335 -110 c0 -16 -5 -30 -10 -30 -6 0 -9 14 -8 30
1 17 6 30 10 30 4 0 8 -13 8 -30z m85 -5 c0 -14 -2 -25 -6 -25 -8 0 -18 48
-11 55 9 8 15 -4 17 -30z m145 5 c0 -25 -4 -30 -24 -30 -18 0 -26 6 -29 23 -4
22 -4 22 -15 -3 l-11 -25 0 29 c-1 23 3 27 18 23 10 -2 25 -1 32 4 23 15 29
10 29 -21z m220 -1 c0 -26 -3 -30 -22 -27 -32 4 -35 36 -6 47 13 6 24 10 26
10 1 1 2 -13 2 -30z m30 22 c0 -5 9 -7 20 -4 12 3 20 0 20 -7 0 -9 4 -9 13 -3
15 13 77 15 77 3 0 -5 7 -16 16 -25 19 -18 14 -28 -9 -19 -9 3 -18 15 -20 27
-3 21 -4 21 -15 -3 -8 -18 -11 -20 -11 -7 -1 21 -21 23 -21 2 0 -11 -12 -15
-45 -15 -44 0 -45 1 -43 30 2 26 18 45 18 21z m255 -26 c1 -27 -12 -34 -21
-10 -7 18 4 51 13 41 4 -3 7 -17 8 -31z m521 16 c11 9 17 9 28 0 10 -9 16 -9
21 -1 4 6 13 9 21 6 7 -3 16 -1 19 5 10 16 23 0 18 -21 -3 -11 0 -20 6 -20 6
0 11 7 11 15 0 8 5 15 10 15 6 0 10 -7 10 -15 0 -23 18 -18 23 8 4 19 4 19 6
-5 1 -25 -2 -27 -39 -26 -32 0 -40 4 -40 18 0 11 -6 17 -17 16 -24 -4 -28 -23
-6 -29 14 -4 13 -5 -4 -6 -13 0 -23 4 -23 9 0 6 -10 10 -22 9 -22 0 -22 -1 -3
-9 19 -8 19 -9 -2 -9 -13 -1 -23 5 -23 12 0 8 -4 7 -10 -3 -7 -11 -9 -6 -9 20
1 19 3 27 6 17 4 -14 8 -16 19 -6z m-1202 -7 c9 -22 7 -34 -3 -34 -5 0 -11 10
-14 23 -4 22 -4 22 -15 -3 l-11 -25 0 28 c-1 20 4 27 18 27 10 0 22 -7 25 -16z
m84 -2 c2 -7 -5 -12 -15 -13 -16 0 -16 -1 2 -9 19 -8 19 -9 -2 -9 -28 -1 -38
15 -22 35 13 16 31 14 37 -4z m123 -22 c5 0 9 8 9 18 0 14 9 17 48 19 45 1 62
-8 62 -34 0 -22 -18 -14 -23 10 -4 22 -4 22 -15 -3 -8 -18 -11 -20 -11 -7 -1
21 -21 23 -21 2 0 -10 -11 -15 -35 -15 -32 0 -35 2 -34 28 2 23 2 24 6 5 2
-13 9 -23 14 -23z m439 15 c0 -18 -5 -25 -20 -25 -18 0 -21 13 -11 48 1 1 8 2
16 2 9 0 15 -9 15 -25z m108 -3 c3 -17 -2 -22 -17 -22 -14 0 -21 6 -21 18 0
38 33 41 38 4z m110 19 c6 -1 12 -8 12 -16 0 -23 18 -18 23 8 4 20 4 19 6 -4
1 -27 0 -27 -69 -27 -60 0 -70 3 -70 17 0 29 5 30 98 22z m172 -10 c0 -11 3
-11 13 4 16 21 37 13 37 -15 0 -15 -8 -18 -50 -18 -37 -1 -50 3 -50 14 0 8 -4
14 -10 14 -5 0 -10 -7 -10 -15 0 -24 -18 -18 -23 8 -4 22 -4 22 -15 -3 l-11
-25 0 26 c-1 26 0 27 59 26 46 -1 60 -4 60 -16z m108 -8 c2 -13 -1 -23 -7 -23
-5 0 -11 10 -14 23 -4 22 -4 22 -15 -3 l-11 -25 0 28 c-1 24 3 28 22 25 14 -2
23 -11 25 -25z m279 2 c10 -23 9 -25 -15 -25 -21 0 -24 2 -12 10 10 6 11 10 3
10 -7 0 -13 7 -13 15 0 24 24 17 37 -10z"/>
<path d="M7970 1803 c0 -16 4 -43 9 -61 8 -27 7 -32 -7 -34 -9 0 -24 -2 -32
-3 -8 -1 -21 4 -29 9 -11 8 -13 8 -8 -1 4 -6 2 -13 -4 -15 -6 -2 -8 -14 -3
-32 5 -22 11 -27 28 -22 66 19 69 19 64 5 -3 -8 -1 -22 4 -32 7 -13 5 -26 -7
-43 -20 -30 -35 -31 -35 -1 0 24 -17 47 -34 47 -6 0 -3 -5 7 -11 21 -12 22
-52 2 -69 -13 -11 -20 -11 -40 0 -36 19 -38 38 -7 67 l27 25 -38 -18 c-34 -17
-37 -22 -32 -49 3 -16 8 -66 12 -110 3 -44 10 -86 16 -92 7 -10 106 -13 434
-13 l424 0 -3 -67 -3 -68 -250 -2 c-137 -2 -364 -3 -502 -3 -196 0 -253 -3
-253 -12 0 -10 209 -13 1010 -13 878 0 1010 2 1008 15 -3 12 -73 14 -491 15
-549 0 -508 -6 -504 80 l3 50 417 3 418 2 8 23 c5 12 14 67 20 122 5 55 13
111 16 125 4 18 3 20 -3 7 -7 -17 -9 -17 -36 4 -23 18 -27 27 -22 51 5 28 4
29 -22 24 -15 -4 -37 -8 -50 -11 -12 -2 -26 -7 -32 -10 -8 -5 9 66 31 122 8
21 6 24 -8 19 -61 -19 -162 -24 -223 -11 -36 7 -67 12 -69 9 -2 -2 1 -4 9 -4
7 0 -6 -20 -29 -45 -46 -50 -51 -65 -18 -59 12 2 16 2 9 -2 -6 -3 -10 -10 -6
-15 3 -5 -7 -4 -21 1 -33 12 -58 13 -51 1 6 -9 -41 0 -79 15 -27 10 -34 23
-36 59 -1 26 -3 24 -12 -15 -11 -49 -21 -60 -55 -60 -19 0 -22 4 -16 28 4 15
13 42 20 61 18 43 18 43 -4 37 -80 -26 -224 -25 -329 0 -21 6 -22 4 -13 -27
18 -62 14 -77 -25 -85 -39 -7 -42 -18 -26 -86 10 -42 10 -42 -38 -28 -47 13
-181 15 -211 2 -14 -5 -31 -17 -38 -25 -11 -13 13 -15 215 -19 193 -2 233 -6
262 -20 22 -12 38 -15 45 -9 22 18 141 31 284 31 l143 0 -12 23 c-7 12 -16 39
-19 59 -6 32 -4 37 14 42 12 3 24 6 29 6 4 0 7 -29 7 -64 l0 -63 136 -6 c117
-5 141 -8 165 -26 16 -12 40 -21 54 -21 15 0 24 -4 20 -10 -3 -5 -2 -10 3 -10
11 0 22 -77 14 -98 -3 -10 -93 -12 -420 -10 l-415 3 -2 52 c-2 49 0 52 24 56
l26 4 -28 2 c-31 1 -47 -26 -47 -85 l0 -34 -417 2 -418 3 -5 48 c-6 49 9 77
40 77 7 0 27 9 44 20 23 14 59 21 128 26 l96 7 6 31 c4 17 7 37 8 44 1 6 8 12
17 12 14 0 14 2 1 10 -12 8 -12 10 5 10 17 0 17 2 5 10 -13 9 -13 10 0 10 13
0 13 1 0 10 -8 5 -10 10 -4 10 14 0 2 66 -15 83 -6 6 -50 11 -98 12 -49 0 -98
7 -110 13 -21 12 -23 11 -23 -15z m1224 -77 c-3 -15 -8 -25 -11 -23 -2 3 -1
17 3 31 3 15 8 25 11 23 2 -3 1 -17 -3 -31z m319 -79 l29 -12 -31 -23 c-34
-25 -48 -22 -61 12 -14 38 9 46 63 23z m52 -37 c4 -6 10 -8 15 -5 4 3 7 -9 6
-26 -4 -53 -51 -60 -77 -12 -12 22 -11 27 6 39 22 17 41 18 50 4z"/>
<path d="M9545 1590 c-4 -6 -3 -16 3 -22 6 -6 12 -6 17 2 4 6 3 16 -3 22 -6 6
-12 6 -17 -2z"/>
<path d="M8220 1820 l-25 -8 27 -1 c14 -1 33 -4 42 -7 11 -4 16 -1 16 10 0 17
-19 19 -60 6z"/>
<path d="M7663 1743 c-7 -2 -13 -9 -13 -15 0 -7 4 -7 13 0 6 5 21 12 32 15
l20 5 -20 0 c-11 0 -26 -2 -32 -5z"/>
<path d="M9745 1743 c11 -3 26 -10 33 -15 8 -7 12 -7 12 0 0 12 -25 22 -48 21
-13 -1 -12 -3 3 -6z"/>
<path d="M7720 1736 c0 -2 9 -6 20 -9 11 -3 18 -1 14 4 -5 9 -34 13 -34 5z"/>
<path d="M9672 1724 c-12 -8 -27 -25 -33 -37 -8 -17 -6 -16 13 5 12 15 34 32
48 37 14 5 18 10 10 10 -9 1 -26 -6 -38 -15z"/>
<path d="M7785 1696 c10 -14 19 -26 22 -26 7 0 -17 39 -28 46 -6 3 -3 -5 6
-20z"/>
<path d="M7652 1650 c0 -14 2 -19 5 -12 2 6 2 18 0 25 -3 6 -5 1 -5 -13z"/>
<path d="M7893 1585 c0 -8 7 -15 15 -15 12 0 12 3 2 15 -7 8 -13 15 -15 15 -1
0 -2 -7 -2 -15z"/>
<path d="M7663 1545 c0 -22 2 -30 4 -17 2 12 2 30 0 40 -3 9 -5 -1 -4 -23z"/>
<path d="M8243 1503 c15 -2 39 -2 55 0 15 2 2 4 -28 4 -30 0 -43 -2 -27 -4z"/>
<path d="M9148 1503 c12 -2 32 -2 45 0 12 2 2 4 -23 4 -25 0 -35 -2 -22 -4z"/>
<path d="M8673 1493 c9 -2 23 -2 30 0 6 3 -1 5 -18 5 -16 0 -22 -2 -12 -5z"/>
<path d="M7673 1420 c0 -30 2 -43 4 -27 2 15 2 39 0 55 -2 15 -4 2 -4 -28z"/>
<path d="M7683 1285 c0 -22 2 -30 4 -17 2 12 2 30 0 40 -3 9 -5 -1 -4 -23z"/>
<path d="M9751 1304 c0 -11 3 -14 6 -6 3 7 2 16 -1 19 -3 4 -6 -2 -5 -13z"/>
<path d="M8590 810 c0 -5 5 -10 10 -10 6 0 10 5 10 10 0 6 -4 10 -10 10 -5 0
-10 -4 -10 -10z"/>
<path d="M7746 442 c-3 -6 -1 -14 5 -17 15 -10 25 3 12 16 -7 7 -13 7 -17 1z"/>
<path d="M8306 441 c-4 -7 -5 -15 -2 -18 9 -9 19 4 14 18 -4 11 -6 11 -12 0z"/>
<path d="M7656 442 c-3 -6 -1 -14 5 -17 15 -10 25 3 12 16 -7 7 -13 7 -17 1z"/>
<path d="M8686 442 c-3 -6 -1 -14 5 -17 15 -10 25 3 12 16 -7 7 -13 7 -17 1z"/>
<path d="M8250 346 c0 -2 7 -7 16 -10 8 -3 12 -2 9 4 -6 10 -25 14 -25 6z"/>
<path d="M8301 334 c0 -11 3 -14 6 -6 3 7 2 16 -1 19 -3 4 -6 -2 -5 -13z"/>
<path d="M8326 342 c-3 -6 -1 -14 5 -17 15 -10 25 3 12 16 -7 7 -13 7 -17 1z"/>
<path d="M8433 353 c9 -2 17 -8 17 -13 0 -5 -8 -11 -17 -13 -14 -4 -12 -5 5
-6 16 -1 22 5 22 19 0 14 -6 20 -22 19 -17 -1 -19 -2 -5 -6z"/>
<path d="M7710 330 c0 -5 5 -10 10 -10 6 0 10 5 10 10 0 6 -4 10 -10 10 -5 0
-10 -4 -10 -10z"/>
<path d="M7936 341 c-4 -7 -5 -15 -2 -18 9 -9 19 4 14 18 -4 11 -6 11 -12 0z"/>
<path d="M7786 241 c-4 -7 -5 -15 -2 -18 9 -9 19 4 14 18 -4 11 -6 11 -12 0z"/>
<path d="M8006 242 c-3 -6 -1 -14 5 -17 15 -10 25 3 12 16 -7 7 -13 7 -17 1z"/>
<path d="M8426 243 c-11 -11 -6 -23 9 -23 8 0 15 4 15 9 0 13 -16 22 -24 14z"/>
<path d="M8466 243 c-3 -3 -3 -10 0 -14 7 -12 34 -11 34 0 0 11 -26 22 -34 14z"/>
<path d="M8640 230 c0 -6 7 -10 15 -10 8 0 15 2 15 4 0 2 -7 6 -15 10 -8 3
-15 1 -15 -4z"/>
</g>
</svg>
